<svg width="128" height="88" viewBox="0 0 128 88" fill="none" xmlns="http://www.w3.org/2000/svg">
<path d="M103.008 0C90.1226 0 79.4787 6.89175 79.8064 19.1208C80.1574 32.2468 83.8494 42.8637 98.5855 43.9504C114.331 45.1114 129.691 35.8178 127.028 21.3218C124.337 6.68541 116.918 0 103.008 0Z" fill="#0A9EF1"/>
<path d="M14.7158 37.9424C26.306 37.9424 27.8501 42.0247 28.9304 49.6567C30.0587 57.6292 26.0075 64.7606 16.9812 65.4247C7.33484 66.136 0.017868 60.0193 9.91821e-05 51.0051C-0.0123367 43.7237 6.1497 38.1902 14.7158 37.9424Z" fill="#FFC700"/>
<g clip-path="url(#clip0)">
<path d="M70.8281 63.6061C70.3512 63.7311 70.1406 63.9456 69.9935 64.3169C69.7902 64.8308 69.2837 65.0293 68.7828 65.1928C68.4769 65.2924 68.1734 65.4084 67.8816 65.5455C67.1856 65.8739 66.5025 66.2308 65.8046 66.5545C65.3083 66.7846 65.2155 66.7402 64.8165 66.1967C64.4813 66.4045 64.1192 66.2673 64.0066 65.9723C63.8861 65.6555 63.9071 65.2311 64.0069 64.8966C64.0849 64.6358 64.3726 64.4329 64.5799 64.2171C64.7131 64.079 64.869 63.9633 65.0562 63.802C64.5217 63.4733 64.0806 63.2288 63.5312 63.3589C63.4651 63.3747 63.3761 63.3867 63.3252 63.3549C62.6328 62.92 61.8223 62.8831 61.0602 62.7388C60.3382 62.6018 59.6586 62.3627 58.9583 62.1737C58.1236 61.948 57.2594 61.8355 56.4139 61.6466C56.1528 61.5884 55.9115 61.4411 55.6619 61.3319C55.513 61.2671 55.372 61.1627 55.2174 61.1379C54.8505 61.079 54.5298 61.004 54.2047 60.7558C53.9299 60.5463 53.46 60.4548 53.1105 60.5148C52.4215 60.6339 51.9088 60.0354 51.2463 60.1583C51.21 60.1648 51.1497 60.1298 51.1255 60.0962C50.7433 59.5617 50.1906 59.4589 49.5843 59.4313C49.392 59.4228 49.187 59.2914 49.023 59.1687C48.7813 58.9875 48.5869 58.7225 48.2261 58.8827C48.1893 58.8985 48.1196 58.8926 48.0924 58.8678C47.3691 58.2017 46.2788 58.136 45.6394 57.2852C45.4157 56.987 45.0666 56.6287 44.5756 56.6044C44.4594 56.5987 44.3504 56.4552 44.2384 56.3739C44.0306 56.2239 43.8435 56.0014 43.6117 55.9361C42.7912 55.7038 42.3655 54.984 41.7678 54.4827C41.5518 54.3014 41.3634 54.0672 41.4598 53.6851C41.511 53.4803 41.3285 53.2169 41.2478 52.9701C41.4208 52.7828 41.5893 52.5997 41.7696 52.4045C42.3494 52.4975 42.6737 52.9773 43.0813 53.3003C44.6248 54.5219 46.1823 55.7231 48.0073 56.4874C49.1431 56.9632 50.3519 57.2651 51.479 57.7593C52.1724 58.0631 52.8938 58.1632 53.6019 58.3596C54.6104 58.6399 55.6175 58.9271 56.622 59.2239C57.306 59.4263 57.9826 59.6554 58.6662 59.8599C58.8662 59.9196 59.0779 59.9449 59.2856 59.973C59.4236 59.9917 59.602 59.9325 59.6988 59.9999C60.2534 60.3867 60.9091 60.222 61.5051 60.3666C61.7078 60.4161 61.9466 60.4388 62.0944 60.5633C62.3213 60.7546 62.5152 60.7908 62.7907 60.6967C62.9281 60.6496 63.1071 60.7246 63.2673 60.7469C63.7706 60.8176 64.2757 60.8757 64.7754 60.9645C65.2564 61.0502 65.7301 61.1764 66.21 61.2677C66.6182 61.3456 67.0313 61.3984 67.5255 61.4753C67.566 61.1911 67.6585 60.9583 67.6158 60.7551C67.535 60.3676 67.5339 60.0189 67.7731 59.6882C67.8125 59.6339 67.8624 59.5442 67.8434 59.4957C67.6254 58.9266 68.1324 58.7037 68.3947 58.3906C68.5014 58.2637 68.7791 58.2523 68.9812 58.2432C69.6822 58.2116 70.2471 58.9691 70.2983 59.6401C70.3476 60.284 70.1973 60.9425 70.6243 61.5291C70.7008 61.6344 70.4954 61.9351 70.5671 62.0575C70.8534 62.5412 70.481 63.0822 70.8281 63.6061Z" fill="#2D3956"/>
<path d="M68.1306 40.9841C67.1768 40.9484 66.8983 40.8262 67.0078 39.5889C67.0344 39.2883 67.1207 38.9929 67.1953 38.6159C66.9543 38.5683 66.7305 38.4627 66.5262 38.4937C65.4225 38.6621 64.3255 38.8729 63.2239 39.0525C62.1061 39.2347 60.9884 39.4234 59.8646 39.5633C58.6827 39.7111 57.5339 39.9305 56.4224 40.4025C55.771 40.6791 55.0932 40.8971 54.358 41.0006C53.1753 41.167 52.0245 41.5699 50.8588 41.8639C50.1404 42.045 49.3619 42.0923 48.7122 42.411C48.0013 42.7603 47.231 42.8965 46.5139 43.2301C45.8023 43.5612 44.9339 43.5532 44.1301 43.6669C44.0322 43.6807 43.8569 43.5508 43.8104 43.4456C43.6511 43.083 43.4892 42.7111 43.4103 42.3254C43.3279 41.9246 43.4901 41.7482 43.9055 41.7676C44.3273 41.7875 44.6823 41.6492 45.0394 41.4609C45.2041 41.3737 45.3787 41.2755 45.558 41.2518C46.41 41.1404 47.1287 40.6866 47.9038 40.3739C48.3525 40.1928 48.8367 40.0491 49.3146 40.0094C50.2217 39.9342 51.0041 39.4764 51.8622 39.2652C52.173 39.1882 52.5018 39.1897 52.8214 39.144C53.1196 39.1013 53.44 39.0983 53.7087 38.9804C54.371 38.6887 55.0394 38.4638 55.7517 38.3132C56.2797 38.2012 56.7608 37.8671 57.2673 37.6433C57.4115 37.5795 57.5711 37.5252 57.7257 37.5176C58.6664 37.4714 59.6045 37.4167 60.5309 37.2219C60.7303 37.1798 60.9513 37.1622 61.1486 37.2027C61.6803 37.3107 62.1864 37.1396 62.6028 36.9045C62.9677 36.6982 63.241 36.7018 63.5207 36.8357C63.8167 36.6923 64.0609 36.5609 64.3163 36.4563C64.4175 36.415 64.5963 36.379 64.6488 36.4319C65.0111 36.7958 65.3413 36.5768 65.7184 36.4538C65.9831 36.3669 66.3008 36.4319 66.5937 36.4523C66.8987 36.473 67.0347 36.3678 66.9894 36.0544C66.926 35.6191 66.8407 35.1859 66.7385 34.7581C66.6382 34.3393 66.8967 33.7779 67.3026 33.6064C67.4307 33.5524 67.5638 33.5087 67.6818 33.4657C68.7329 34.2032 69.7391 34.9866 71.0209 35.256C71.203 35.2942 71.3791 35.3622 71.5576 35.4185C72.7742 35.8041 73.0125 36.2957 72.6209 37.483C72.2625 37.7107 71.9481 37.8931 71.6526 38.1031C71.317 38.3418 70.9971 38.6025 70.6751 38.8599C70.5867 38.9304 70.462 39.0147 70.4457 39.1081C70.3658 39.5699 69.9197 39.662 69.6335 39.8103C69.2899 39.9884 69.0102 40.1834 68.7577 40.4653C68.5897 40.6529 68.3685 40.7909 68.1306 40.9841ZM67.5389 35.407C67.5084 35.4125 67.4779 35.4188 67.4474 35.4243C67.4713 35.5784 67.4959 35.7326 67.52 35.8859C67.5617 35.8776 67.6041 35.8694 67.6459 35.8604C67.6099 35.7097 67.5741 35.5583 67.5389 35.407Z" fill="#2D3956"/>
</g>
<path d="M94.052 87.9409C101.382 87.9409 106.248 84.1503 107.251 77.0638C108.298 69.661 104.537 62.5697 96.1555 61.9531C87.1985 61.2927 80.7245 67.448 80.3879 75.8117C80.0646 83.8812 86.0981 87.7124 94.052 87.9409Z" fill="#FF2A2A"/>
<defs>
<clipPath id="clip0">
<rect width="95.8765" height="54.3552" fill="white" transform="translate(20.0237 13.1064) rotate(11.1893)"/>
</clipPath>
</defs>
</svg>
