<svg width="127" height="94" viewBox="0 0 127 94" fill="none" xmlns="http://www.w3.org/2000/svg">
<path d="M58.2035 83.8461C58.2271 83.9834 58.2485 84.1228 58.2805 84.3137C58.1394 84.2579 58.0624 84.2279 57.9811 84.1957C57.964 84.2065 57.9448 84.215 57.9276 84.2279C57.7565 84.378 57.5854 84.526 57.4186 84.6826C57.3052 84.7877 57.2026 84.9035 57.0956 85.0172C57.0443 85.0708 57.0015 85.1673 56.9438 85.178C56.5845 85.2445 56.2209 85.2874 55.8594 85.3496C55.6883 85.3797 55.5236 85.4311 55.3547 85.4762C55.2798 85.4955 55.2071 85.5362 55.1301 85.5427C54.5633 85.592 53.9944 85.6284 53.4276 85.6864C53.2864 85.7014 53.1517 85.7872 53.0148 85.8429C52.9848 85.8558 52.9528 85.8987 52.9314 85.8923C52.5143 85.7614 52.3325 86.1046 52.0908 86.3148C51.939 86.4456 51.8128 86.4563 51.6844 86.3105C51.5369 86.1411 51.3936 86.1582 51.169 86.1754C50.6236 86.2161 50.1637 86.6708 49.5627 86.4628C49.3895 86.4027 49.1435 86.555 48.9318 86.6065C48.8013 86.6365 48.6687 86.6708 48.5361 86.6837C47.6763 86.7652 46.8186 86.8488 45.9588 86.9196C45.4477 86.9604 44.9343 87.0011 44.421 87.0054C43.6489 87.0118 42.8768 86.9754 42.1026 86.9818C41.6384 86.9861 41.1743 87.0526 40.7102 87.0655C40.4963 87.0697 40.2824 87.0097 40.0151 86.9711C39.9958 86.673 39.814 86.4563 39.5574 86.2204C39.2986 85.9845 39.1724 85.5705 39.0633 85.2124C38.8751 84.5989 38.7382 83.9705 38.5928 83.3442C38.5564 83.1877 38.5821 83.0161 38.5692 82.8531C38.5521 82.6472 38.5393 82.4391 38.4944 82.2397C38.4473 82.0252 38.3126 81.8193 38.3062 81.607C38.2805 80.8413 38.3062 80.0756 38.2848 79.3099C38.2762 79.0096 38.227 78.7029 38.1415 78.4134C37.964 77.8128 37.9682 77.2144 38.073 76.6075C38.1201 76.3372 38.227 76.1678 38.5564 76.1678C38.8772 76.1678 39.2045 76.0134 39.5167 76.0455C39.9488 76.0884 40.276 75.8911 40.6396 75.7431C40.7722 75.6895 40.9497 75.7689 41.1037 75.7517C41.9272 75.6638 42.7506 75.578 43.5698 75.4686C44.0724 75.4021 44.5686 75.2927 45.0691 75.2155C45.1568 75.2026 45.2787 75.2198 45.3429 75.2734C45.5974 75.49 45.869 75.7002 46.0701 75.9619C46.2711 76.2214 46.4037 76.5367 46.5492 76.8348C46.808 77.3624 46.9277 77.386 47.5116 77.2895C48.1918 77.178 48.8826 77.1115 49.5734 77.0815C50.3263 77.0493 51.0856 77.1287 51.8363 77.075C52.3133 77.0407 52.7774 76.8284 53.2543 76.7426C53.6158 76.6761 53.9901 76.6911 54.358 76.6547C54.805 76.6075 55.1921 76.8091 55.6028 76.9249C55.8102 76.985 56.0498 76.9957 56.2615 76.9592C56.685 76.8884 57.0315 76.9292 57.2796 77.341C57.5255 77.7506 57.7972 78.1453 58.0752 78.5313C58.287 78.823 58.5308 79.0911 58.7554 79.3721C58.8088 79.4407 58.858 79.5201 58.888 79.6016C58.9949 79.8976 59.0976 80.1936 59.1938 80.4938C59.2173 80.5646 59.2067 80.6482 59.2045 80.7255C59.2002 81.0257 59.1938 81.3281 59.1895 81.6284C59.1853 81.8365 59.3115 82.0552 59.0912 82.244C59.0441 82.2847 59.1019 82.4542 59.1211 82.5635C59.1831 82.9518 59.0313 83.1834 58.6677 83.2992C58.5821 83.3271 58.5073 83.4193 58.4495 83.5008C58.3768 83.6059 58.3276 83.726 58.2677 83.8397C58.2463 83.8418 58.2249 83.844 58.2035 83.8461ZM39.9809 83.9984C40.0172 83.9984 40.0536 84.0006 40.0899 84.0006C40.1905 84.0413 40.2953 84.0713 40.3894 84.1228C40.5391 84.2043 40.6717 84.3266 40.8278 84.3802C41.0289 84.4467 41.2449 84.466 41.4566 84.4981C42.1667 84.6011 42.8725 84.7341 43.5869 84.7877C43.9334 84.8134 44.2884 84.6762 44.6413 84.6354C45.1611 84.5754 45.7107 84.807 46.2005 84.4338C46.3075 84.3523 46.5064 84.3802 46.6625 84.3737C46.9513 84.3587 47.2421 84.3652 47.5309 84.3437C48.1362 84.2987 48.7414 84.2408 49.3446 84.1914C49.7018 84.1614 50.0611 84.1507 50.4161 84.1099C50.9038 84.0542 51.3914 83.9877 51.8769 83.9083C52.3988 83.8225 52.9185 83.7153 53.4383 83.6166C53.4704 83.6102 53.511 83.6016 53.5302 83.578C53.8083 83.2799 54.174 83.3807 54.5141 83.3636C54.5804 83.3593 54.651 83.3914 54.713 83.3764C55.0852 83.282 55.4509 83.1727 55.823 83.0783C56.4818 82.9131 56.6294 82.7501 56.7085 82.0831C56.7171 82.0166 56.7385 81.9501 56.7492 81.8836C56.8133 81.4826 56.8347 81.0965 56.4839 80.7898C56.4155 80.7298 56.3834 80.6139 56.3663 80.5174C56.2808 80.0606 55.9984 79.786 55.5792 79.6316C55.2327 79.5051 54.867 79.4171 54.5483 79.2413C54.1398 79.0182 53.7356 79.0826 53.3356 79.1662C53.002 79.237 52.7047 79.4429 52.3368 79.2541C51.9604 79.0611 51.7208 79.5759 51.3508 79.4944C51.3294 79.4901 51.3059 79.4944 51.2823 79.4944C50.6428 79.5201 49.9991 79.5072 49.366 79.5866C48.7307 79.6659 48.0784 79.7603 47.4902 79.9941C47.0047 80.1871 46.5427 80.0584 46.0765 80.1335C46.0487 80.1378 46.0059 80.1185 45.9866 80.0949C45.7107 79.7775 45.3814 79.5222 45.2466 79.0697C45.144 78.7222 45.1204 78.1946 44.5023 78.2161C44.5857 78.0166 44.6606 77.8386 44.7333 77.6606C44.7098 77.6348 44.6862 77.6112 44.6627 77.5855C44.2649 77.8107 43.8393 77.5855 43.4051 77.7442C42.9773 77.8986 42.479 77.875 42.0106 77.8986C41.4139 77.9287 40.8449 78.0638 40.2782 78.2504C39.6451 78.4606 39.6622 79.0439 39.6066 79.5029C39.5445 80.037 39.6686 80.5968 39.737 81.1437C39.8012 81.6649 39.9252 82.1775 39.9744 82.6987C40.0129 83.1298 39.9809 83.5652 39.9809 83.9984ZM58.2506 83.0182C58.1372 82.9003 58.0218 82.7823 57.9084 82.6622C58.1223 82.6708 58.3362 82.6772 58.55 82.6858C58.5522 82.6729 58.5543 82.6579 58.5565 82.645C58.3811 82.5743 58.2057 82.5035 58.0324 82.4327C58.2805 82.5635 57.8079 82.9668 58.2506 83.0182Z" fill="#2D3956"/>
<path d="M29.8719 91.0543C29.7649 91.1436 29.655 91.232 29.5058 91.3555C29.4836 91.2051 29.4712 91.1232 29.4584 91.0366C29.4406 91.0271 29.4236 91.0147 29.4039 91.0063C29.1886 90.9331 28.9752 90.8588 28.7565 90.7925C28.6089 90.7468 28.4575 90.7158 28.3058 90.68C28.2338 90.6623 28.1289 90.6736 28.0908 90.6288C27.8539 90.3504 27.6353 90.0564 27.4011 89.7739C27.2897 89.6405 27.163 89.5234 27.0397 89.3993C26.9856 89.344 26.914 89.3014 26.87 89.2378C26.5444 88.7707 26.2289 88.2953 25.8959 87.8325C25.8124 87.7175 25.6709 87.6436 25.5544 87.5528C25.5283 87.5333 25.4752 87.5269 25.47 87.5051C25.375 87.0777 24.9874 87.0919 24.6849 86.9876C24.496 86.9214 24.4237 86.8172 24.4858 86.6328C24.5587 86.4198 24.4723 86.304 24.3454 86.1178C24.0379 85.6649 23.415 85.4938 23.2949 84.868C23.2604 84.6876 23.0059 84.5505 22.8557 84.3926C22.7646 84.2944 22.6687 84.1965 22.5914 84.0879C22.0917 83.3827 21.5912 82.6804 21.1007 81.9698C20.8103 81.5467 20.5188 81.1217 20.2589 80.6784C19.8679 80.0116 19.514 79.3234 19.1219 78.6548C18.8865 78.2542 18.5973 77.8848 18.3545 77.4885C18.2441 77.305 18.1892 77.0893 18.0892 76.838C18.3375 76.6719 18.4341 76.4055 18.5101 76.0646C18.585 75.7217 18.8801 75.4047 19.1355 75.1305C19.5722 74.6597 20.0475 74.226 20.5167 73.7858C20.634 73.6758 20.7952 73.6121 20.9298 73.5192C21.0994 73.4012 21.273 73.2857 21.4231 73.1468C21.5852 72.9984 21.696 72.7783 21.8765 72.6663C22.5261 72.2602 23.2013 71.8987 23.853 71.4963C24.1085 71.3384 24.3492 71.142 24.557 70.9226C24.9879 70.4675 25.5077 70.1713 26.0851 69.958C26.3424 69.8633 26.5423 69.8712 26.7068 70.157C26.8669 70.4354 27.1639 70.642 27.2919 70.929C27.4705 71.3254 27.8045 71.5105 28.114 71.7518C28.2266 71.84 28.2466 72.0338 28.3383 72.1589C28.8254 72.8293 29.3107 73.5008 29.8142 74.1568C30.1226 74.5596 30.465 74.9354 30.7816 75.331C30.8365 75.4006 30.8825 75.515 30.8682 75.5975C30.8078 75.927 30.7616 76.268 30.6356 76.5737C30.5114 76.8782 30.3049 77.1513 30.1196 77.427C29.7923 77.916 29.8317 78.0317 30.2067 78.49C30.6427 79.0243 31.045 79.5904 31.4159 80.1749C31.8195 80.812 32.1299 81.5106 32.551 82.1352C32.8188 82.5319 33.2342 82.8282 33.5465 83.199C33.7844 83.4794 33.9583 83.8117 34.1735 84.1126C34.4374 84.4768 34.4563 84.9138 34.561 85.3282C34.6127 85.5383 34.723 85.7516 34.8602 85.917C35.1328 86.249 35.2705 86.5701 35.0381 86.9918C34.8065 87.4106 34.6007 87.8441 34.4056 88.2789C34.2589 88.6089 34.1487 88.9548 34.0177 89.2905C33.9851 89.3713 33.941 89.4538 33.8854 89.5206C33.6828 89.7618 33.4779 89.9992 33.2662 90.2333C33.2168 90.2892 33.1391 90.3218 33.0712 90.3587C32.8093 90.5055 32.5445 90.6515 32.2826 90.7983C32.1005 90.8989 31.9742 91.118 31.701 91.0215C31.6422 91.0011 31.5245 91.1361 31.4395 91.2076C31.1346 91.456 30.8584 91.4404 30.5767 91.1829C30.5099 91.1227 30.3927 91.1039 30.2934 91.0947C30.1662 91.0843 30.0377 91.1018 29.9095 91.1068C29.897 91.0893 29.8844 91.0718 29.8719 91.0543ZM20.6437 75.3182C20.6619 75.3498 20.6781 75.3824 20.6963 75.414C20.7112 75.5216 20.7376 75.6276 20.74 75.7351C20.7442 75.9058 20.7047 76.0822 20.7362 76.2445C20.7791 76.4523 20.8702 76.6494 20.9481 76.8493C21.2135 77.5171 21.4508 78.1962 21.761 78.8429C21.9117 79.1565 22.2077 79.3958 22.4191 79.6816C22.7305 80.1025 22.8045 80.6956 23.3718 80.9335C23.4957 80.9854 23.5709 81.172 23.6544 81.3043C23.8115 81.5473 23.9511 81.8029 24.1138 82.0427C24.4549 82.5454 24.8072 83.0416 25.1509 83.5402C25.3552 83.8351 25.5438 84.1415 25.7563 84.4292C26.048 84.8244 26.3489 85.2142 26.66 85.5957C26.9947 86.0056 27.3469 86.4028 27.6917 86.8043C27.7133 86.8289 27.741 86.8599 27.771 86.8648C28.1677 86.9566 28.263 87.3245 28.4477 87.611C28.4845 87.6664 28.4919 87.7437 28.5358 87.79C28.8032 88.0657 29.0804 88.3282 29.3478 88.6038C29.8195 89.0927 30.0342 89.139 30.6508 88.8733C30.7125 88.8474 30.7807 88.8327 30.8436 88.8086C31.2226 88.6632 31.5672 88.4883 31.6575 88.0302C31.6753 87.9407 31.7594 87.8548 31.8344 87.7916C32.1869 87.4883 32.2834 87.1057 32.2078 86.6646C32.1443 86.3005 32.0378 85.939 32.0308 85.5744C32.0199 85.1081 31.7624 84.7895 31.4904 84.4844C31.2626 84.2304 30.9361 84.0756 30.9158 83.6618C30.8948 83.2384 30.33 83.2885 30.2158 82.9266C30.2088 82.9059 30.1933 82.8876 30.1816 82.8672C29.8401 82.3252 29.5299 81.7601 29.1452 81.2505C28.7594 80.7391 28.3522 80.2204 27.8563 79.8272C27.447 79.5026 27.3277 79.0372 27.03 78.6703C27.0124 78.6483 27.0077 78.6015 27.0185 78.573C27.1554 78.1745 27.2118 77.7607 27.536 77.4169C27.7854 77.1537 28.23 76.8688 27.9029 76.3432C28.1171 76.3156 28.3085 76.2913 28.4988 76.2652C28.5093 76.2319 28.518 76.1996 28.5285 76.1663C28.1351 75.934 28.1175 75.4518 27.7634 75.1546C27.4163 74.8608 27.1879 74.4166 26.9337 74.0219C26.6099 73.5192 26.209 73.0932 25.7646 72.695C25.2668 72.251 24.7706 72.5582 24.3458 72.74C23.8529 72.9539 23.4305 73.3422 22.9915 73.6757C22.5727 73.9926 22.1912 74.3572 21.7649 74.6612C21.4112 74.9107 21.0185 75.1011 20.6437 75.3182ZM30.6116 90.6802C30.657 90.5227 30.7014 90.3633 30.7487 90.2048C30.8481 90.3947 30.9493 90.5835 31.0486 90.7734C31.0608 90.7688 31.0749 90.7631 31.0871 90.7585C31.0608 90.5709 31.0345 90.3832 31.0092 90.1974C31.0199 90.4783 30.4351 90.2702 30.6116 90.6802Z" fill="#2D3956"/>
<path fill-rule="evenodd" clip-rule="evenodd" d="M70 25.2912C70 25.2912 70 25.2912 70 25.2912C70 38.1635 80.4235 48.6013 93.2904 48.6245L93.3333 48.6245L93.3333 25.2912L70 25.2912Z" fill="#FF2A2A"/>
<path fill-rule="evenodd" clip-rule="evenodd" d="M116.665 48.5608V48.6234H93.332V25.29H93.3762C106.222 25.3138 116.632 35.7176 116.665 48.5608Z" fill="#FF2A2A"/>
<circle cx="93.3334" cy="13.6247" r="11.6667" fill="#FFC700"/>
<rect x="93.3333" y="48.6245" width="23.3333" height="23.3333" fill="#0A9EF1"/>
<path fill-rule="evenodd" clip-rule="evenodd" d="M46.6667 48.6248C59.5533 48.6248 70 38.1781 70 25.2915L46.6667 25.2915L46.6667 48.6248Z" fill="#FFC700"/>
<path fill-rule="evenodd" clip-rule="evenodd" d="M0 48.6245C2.10836e-05 35.7379 10.4467 25.2912 23.3333 25.2912L23.3333 48.6245L0 48.6245Z" fill="#FFC700"/>
<circle cx="34.611" cy="13.6247" r="11.6667" fill="#0A9EF1"/>
<rect x="23.3333" y="48.6245" width="23.3333" height="23.3333" fill="#FF2A2A"/>
<rect x="23.27" y="25.2915" width="23.3333" height="23.3333" fill="#FFC700"/>
<path d="M31.6945 5.10312C31.7907 5.1267 31.8848 5.16743 31.981 5.17172C32.1477 5.17815 32.3145 5.16958 32.4812 5.15457C32.5432 5.15028 32.601 5.11383 32.6779 5.08811C32.7143 5.21888 32.7442 5.33037 32.7912 5.49973C32.8832 5.37324 32.9345 5.3025 32.9943 5.22317C33.3963 5.28106 33.841 5.21245 34.198 5.60049C34.4439 5.44614 34.7132 5.54261 34.9698 5.72913C34.9912 5.74413 35.0211 5.757 35.0467 5.757C35.4701 5.7377 35.6838 5.81917 36.0452 6.06571C36.2141 6.18148 36.4172 6.25009 36.6117 6.31869C37.0628 6.47519 37.5203 6.61669 38.0206 6.78177C38.0206 6.78606 38.0206 6.87395 38.0206 6.96614C38.6064 6.89111 38.833 6.97686 38.9613 7.35204C38.9891 7.25556 39.004 7.19554 39.0062 7.19339C39.22 7.30487 39.4402 7.3992 39.6369 7.52998C39.7651 7.61573 39.8592 7.75723 39.9832 7.89015C40.1051 7.7315 40.212 7.71221 40.3616 7.95232C40.4707 8.12812 40.678 8.25461 40.8662 8.36395C41.0094 8.44756 41.0607 8.54403 41.1249 8.6941C41.189 8.84632 41.4156 8.9235 41.5396 9.06071C41.7855 9.33298 42.0078 9.62669 42.2409 9.90968C42.258 9.93112 42.2751 9.95684 42.2964 9.97399C42.662 10.3084 43.0575 10.6193 43.3868 10.9859C43.6412 11.2689 44.0688 11.4661 43.9854 11.9592C44.0966 11.9528 44.2227 11.9099 44.2676 11.9528C44.3168 12 44.2868 12.1264 44.3039 12.2165C44.3125 12.2615 44.3403 12.3065 44.3702 12.3451C44.398 12.3816 44.4557 12.4009 44.4728 12.4394C44.5648 12.6624 44.6268 12.9004 44.7379 13.1148C44.8384 13.3077 44.9966 13.4707 45.1185 13.655C45.2083 13.7901 45.328 13.9252 45.3579 14.0752C45.4071 14.3303 45.6979 14.4954 45.6102 14.7956C45.6017 14.8234 45.6252 14.8856 45.6487 14.8942C45.995 15.025 46.0378 15.3058 46.0784 15.6295C46.0998 15.8096 46.3392 15.9661 46.3606 16.1462C46.4034 16.5128 46.7134 16.8558 46.459 17.2675C46.863 17.2439 46.6984 17.5526 46.7305 17.7305C46.7647 17.9192 46.677 18.0735 46.8759 18.2879C47.064 18.4895 47.0191 18.9225 47.0469 19.2548C47.0512 19.3148 46.9122 19.3856 46.8224 19.4671C47.2265 19.6643 47.2137 19.9923 47.1303 20.3568C47.1153 20.4232 47.2243 20.5111 47.2308 20.5926C47.2692 21.0428 47.3868 21.5123 47.3013 21.939C47.1752 22.5714 47.3697 23.191 47.2564 23.8106C47.1773 24.25 47.0939 24.6895 47.0084 25.129C46.9507 25.427 46.8459 25.7229 46.8331 26.023C46.816 26.4539 46.6086 26.7841 46.382 27.1164C46.3563 27.155 46.305 27.2043 46.3136 27.2365C46.4248 27.6609 46.1212 27.9332 45.9566 28.2612C45.7962 28.5785 45.6722 28.9151 45.5226 29.2388C45.4948 29.301 45.4242 29.3846 45.3729 29.3846C44.9988 29.3868 45.157 29.5433 45.281 29.6869C45.2339 29.7962 44.9325 29.7834 45.142 30.0214C44.9945 30.0214 44.8491 30.0214 44.6973 30.0214C44.6631 30.4244 44.6097 30.8167 44.274 31.0976C44.1543 31.1962 44.0624 31.3377 43.9319 31.4084C43.855 31.4492 43.7246 31.3891 43.5685 31.3656C43.5022 31.4535 43.282 31.5435 43.4873 31.7772C43.5044 31.7965 43.4424 31.9273 43.3889 31.9637C43.2286 32.0688 43.0597 32.1717 42.8801 32.236C42.7882 32.2703 42.6663 32.221 42.5316 32.2081C42.5316 32.3132 42.5316 32.4096 42.5316 32.5275C42.4461 32.5211 42.3841 32.5168 42.305 32.5104C42.3007 32.5747 42.2964 32.6433 42.2964 32.6605C42.119 32.7226 41.98 32.7677 41.8411 32.8191C41.7983 32.8341 41.7384 32.8556 41.7235 32.8899C41.6166 33.1343 41.4712 33.0807 41.3151 32.9284C41.2146 33.0163 41.1398 33.1085 41.0415 33.16C40.9282 33.22 40.7892 33.2329 40.6695 33.2865C40.46 33.3765 40.2569 33.4816 40.0538 33.5823C39.9682 33.6252 39.872 33.7303 39.8079 33.711C39.5984 33.6509 39.4273 33.6809 39.2841 33.8396C39.096 34.0454 38.8544 33.9661 38.632 33.9682C38.4482 33.9704 38.2707 33.9082 38.1232 34.1226C38.0505 34.2276 37.8496 34.2598 37.6978 34.2919C37.2253 34.3991 36.7678 34.65 36.2589 34.4249C36.1157 34.3606 35.9425 34.3584 35.7822 34.337C35.4978 34.3005 35.205 34.307 34.9334 34.2319C34.6341 34.1505 34.3305 34.0776 34.0804 33.8417C33.9457 33.7152 33.6977 33.7024 33.4989 33.6531C33.3792 33.6231 33.2488 33.6295 33.1269 33.6059C32.9067 33.5609 32.648 33.5609 32.4748 33.443C32.0644 33.16 31.6325 33.0013 31.1386 32.9542C30.8714 32.9284 30.835 32.7762 30.974 32.3946C30.7709 32.3946 30.5742 32.4354 30.4053 32.3818C30.2664 32.3389 30.1573 32.1888 30.0419 32.0795C29.9457 31.9894 29.8452 31.8994 29.7725 31.7922C29.7255 31.7236 29.7233 31.6228 29.7126 31.5757C29.5844 31.5242 29.4625 31.4813 29.3449 31.4256C29.1931 31.3527 29.0477 31.2712 28.9002 31.1898C28.8617 31.1683 28.8019 31.1362 28.7997 31.1062C28.7826 30.8103 28.5795 30.6817 28.3508 30.568C28.3102 30.5466 28.246 30.5102 28.246 30.4801C28.2417 30.0385 27.6731 29.8327 27.8056 29.3439C27.7137 29.3267 27.6453 29.316 27.5704 29.301C27.5875 29.1595 27.6025 29.0373 27.6239 28.883C27.3716 28.943 27.3417 28.8058 27.3096 28.615C27.2711 28.3877 27.1728 28.154 26.9141 28.0983C26.6896 28.0511 26.6597 27.9354 26.7131 27.7467C26.7302 27.6845 26.7345 27.6202 26.7473 27.5323C26.6383 27.5323 26.5485 27.5323 26.4096 27.5323C26.4352 27.3394 26.4587 27.1721 26.4822 26.9942C26.2214 26.9084 26.0226 26.5161 26.1252 26.2117C26.1808 26.0466 26.1893 25.9051 25.967 25.8644C25.9307 25.858 25.8815 25.8515 25.8644 25.8279C25.8387 25.7936 25.828 25.7422 25.8195 25.695C25.781 25.4463 25.7447 25.1976 25.6998 24.9039C25.6656 24.861 25.58 24.7753 25.518 24.6745C25.1995 24.1429 24.96 23.579 24.8724 22.9573C24.836 22.6936 24.7847 22.4278 24.712 22.1726C24.6693 22.0226 24.5389 21.8961 24.5068 21.746C24.4405 21.448 24.4149 21.1393 24.3743 20.8349C24.37 20.7984 24.3678 20.7491 24.3871 20.7212C24.5731 20.4747 24.3807 20.3439 24.2695 20.1445C24.1476 19.9237 24.1605 19.6214 24.1434 19.3513C24.1113 18.8625 24.1562 18.3587 24.0557 17.8849C24.0151 17.6919 23.9574 17.5547 24.0835 17.3939C23.7051 17.0231 23.8847 16.6264 24.03 16.217C23.7628 16.1526 23.7692 16.0197 23.8419 15.7903C23.9851 15.3251 23.9338 14.8427 23.8611 14.3625C23.8376 14.2017 23.844 13.9938 23.9296 13.8694C24.0728 13.6615 24.0279 13.4535 24.0322 13.2413C24.0386 12.954 24.0429 12.6667 24.0536 12.3816C24.0557 12.3258 24.0643 12.2336 24.0963 12.2208C24.4085 12.0964 24.216 11.837 24.2845 11.6269C24.216 11.6526 24.1754 11.6677 24.0835 11.7041C24.2225 11.2024 24.3507 10.7415 24.494 10.227C24.3208 10.1005 24.4298 9.87323 24.4811 9.64169C24.5431 9.3587 24.556 9.06071 24.6394 8.78415C24.7142 8.53117 24.8553 8.29534 24.9921 7.99734C24.8745 7.75937 24.9472 7.6093 25.3299 7.44851C25.3898 7.42279 25.4475 7.37348 25.4838 7.31988C25.6784 7.04761 25.89 6.80321 26.2642 6.80535C26.4245 6.30368 26.8371 6.01426 27.346 6.02498C27.4507 6.02712 27.5576 5.94566 27.6645 5.90492C27.8783 5.82346 28.0921 5.74199 28.308 5.66481C28.3786 5.63908 28.4598 5.59835 28.524 5.61336C28.7164 5.66267 28.8788 5.65838 29.0178 5.49116C29.0499 5.45471 29.1397 5.45257 29.2017 5.459C29.3962 5.48044 29.6399 5.6498 29.6891 5.27463C29.6913 5.25533 29.7533 5.23604 29.7896 5.2296C30.0397 5.18458 30.2877 5.13313 30.54 5.09883C30.8393 5.06024 31.1386 5.02808 31.4401 5.01093C31.5149 5.00664 31.5961 5.07739 31.6731 5.11383C31.671 5.11383 31.6817 5.10955 31.6945 5.10312ZM27.0573 24.9747C27.0851 24.964 27.1151 24.9554 27.1429 24.9447C27.2134 25.0647 27.3032 25.1762 27.3502 25.3048C27.5533 25.8622 27.7201 26.4347 27.9467 26.9835C28.1028 27.3565 28.2995 27.7274 28.5432 28.0468C28.8425 28.4392 28.9387 28.9516 29.3193 29.286C29.3321 29.2967 29.3321 29.3224 29.3428 29.3375C29.563 29.6505 29.6913 30.0471 30.1124 30.1821C30.1616 30.1971 30.2343 30.2572 30.2322 30.2915C30.2193 30.5295 30.3626 30.6152 30.5528 30.6988C30.7388 30.7803 30.9099 30.9025 31.0809 31.0183C31.4828 31.2927 31.8784 31.5757 32.2803 31.8544C32.3359 31.893 32.4 31.9165 32.462 31.9423C32.8597 32.1159 33.3129 32.2188 33.6421 32.4804C34.0548 32.8084 34.5593 32.8298 35.0019 33.0485C35.6753 33.3808 36.4663 33.2693 37.2103 33.3251C37.2574 33.3293 37.3065 33.3186 37.3514 33.3079C37.8132 33.1921 38.2836 33.1021 38.7325 32.9499C39.2585 32.7741 39.7673 32.549 40.2804 32.3324C40.4835 32.2467 40.6673 32.1181 40.8683 32.0259C40.9859 31.9723 41.142 31.9873 41.2446 31.9165C41.6636 31.6293 42.1062 31.3591 42.4717 31.0097C42.91 30.5916 43.3226 30.1285 43.6668 29.6312C44.0175 29.1252 44.3275 28.5764 44.5562 28.004C44.8341 27.3051 45.0736 26.5869 45.1677 25.8279C45.2104 25.4721 45.3708 25.1312 45.4306 24.7753C45.5375 24.1621 45.6209 23.5426 45.6872 22.923C45.7043 22.7536 45.6209 22.5735 45.5867 22.3977C45.5739 22.3291 45.5525 22.2562 45.5675 22.1919C45.6124 21.9861 45.7086 21.7867 45.7214 21.5788C45.7406 21.2615 45.7086 20.942 45.6893 20.6226C45.6808 20.4854 45.6594 20.3439 45.6252 20.211C45.5418 19.8873 45.4392 19.5657 45.3644 19.2398C45.343 19.1498 45.4242 19.034 45.4028 18.944C45.328 18.6567 45.2147 18.3801 45.1377 18.0928C45.0095 17.6212 44.9346 17.1302 44.7679 16.6736C44.6054 16.2341 44.3553 15.8268 44.1436 15.4044C43.8913 14.9049 43.6369 14.4054 43.3911 13.9016C43.1922 13.4942 43.0169 13.074 42.8095 12.671C42.7497 12.5531 42.5508 12.4845 42.5295 12.373C42.4525 11.9635 42.0762 11.8049 41.8304 11.5776C41.499 11.2732 41.0714 11.0738 40.8704 10.63C40.8512 10.5893 40.802 10.5636 40.77 10.5271C40.678 10.4156 40.5904 10.302 40.5006 10.1905C40.4514 10.0769 40.3638 9.99329 40.2761 9.91182C40.1756 9.81749 40.0773 9.71887 39.9725 9.62883C39.8913 9.55594 39.8058 9.48734 39.7181 9.42088C39.5086 9.26223 39.4979 8.83774 39.0853 8.94708C39.0703 8.95137 39.0297 8.91278 39.0276 8.89134C38.9891 8.52259 38.6983 8.52474 38.4396 8.49687C38.3905 8.11526 38.0313 8.09382 37.8068 7.98019C37.6422 7.89658 37.422 7.88801 37.2531 7.7508C37.1483 7.66504 37.0414 7.5943 36.8704 7.67362C36.7827 7.71435 36.6267 7.62002 36.5069 7.57071C36.3765 7.51712 36.2525 7.44422 36.0922 7.36276C36.0815 7.34775 36.0537 7.24699 35.996 7.22769C35.8485 7.17838 35.6881 7.16338 35.5321 7.13336C35.1857 7.07119 34.8287 7.0326 34.6256 6.67886C34.6106 6.65314 34.5572 6.63384 34.5272 6.63813C34.3434 6.67029 34.1616 6.72603 33.9778 6.74532C33.8987 6.7539 33.8089 6.70888 33.7341 6.67029C33.687 6.6467 33.6678 6.56524 33.6229 6.54809C33.3257 6.44304 33.02 6.35299 32.7228 6.24366C32.6074 6.20078 32.5048 6.12145 32.3872 6.05499C32.2931 6.16433 32.1883 6.23722 31.9724 6.15576C31.7715 6.08072 31.4786 6.04213 31.3118 6.13646C31.0424 6.29082 30.7837 6.21579 30.5229 6.25438C30.2706 6.29296 30.0119 6.30154 29.7682 6.36586C29.4454 6.45161 29.1375 6.59096 28.8147 6.68101C28.6779 6.7196 28.524 6.68744 28.3764 6.68744C28.0964 6.69816 27.9446 7.15051 27.5619 6.86538C27.5341 6.964 27.5384 7.06047 27.4913 7.10549C27.269 7.32417 27.0552 7.56857 26.7922 7.72936C26.6127 7.8387 26.5293 7.95661 26.4865 8.14313C26.4673 8.22674 26.4566 8.32964 26.4031 8.3811C26.1744 8.59977 26.1017 8.87633 26.1402 9.16361C26.1765 9.43803 26.2834 9.70387 26.3582 9.97185C26.3924 10.0962 26.4929 10.2763 26.4459 10.3342C26.3604 10.4371 26.1509 10.5528 26.0547 10.5143C25.6741 10.3535 25.6784 10.6429 25.6698 10.8358C25.6378 11.4833 25.347 12.1007 25.4603 12.7632C25.4731 12.8339 25.4347 12.9132 25.4261 12.9904C25.3833 13.3184 25.3107 13.6486 25.3085 13.9766C25.3042 14.6584 25.3406 15.3401 25.3513 16.0219C25.3556 16.3049 25.3128 16.5921 25.3342 16.873C25.3577 17.1924 25.4453 17.5076 25.4774 17.827C25.5587 18.661 25.61 19.4971 25.6998 20.3289C25.7532 20.8349 25.8558 21.3365 25.9392 21.8403C25.9478 21.8939 25.9884 21.9411 26.0098 21.9925C26.1102 22.2241 26.215 22.4556 26.3048 22.6915C26.4309 23.0173 26.4993 23.3732 26.6747 23.6691C26.9141 24.0785 27.0894 24.473 26.9291 24.9489C26.8607 25.1548 26.8842 25.2277 27.0338 25.2941C27.0445 25.1955 27.0509 25.0862 27.0573 24.9747Z" fill="#2D3956"/>
<path d="M33.8944 34.0041C33.764 33.9806 33.6315 33.9592 33.5011 33.9293C33.4968 33.9293 33.5182 33.7925 33.5224 33.7925C33.655 33.8032 33.7875 33.8224 33.9222 33.8395C33.9115 33.8951 33.903 33.9507 33.8944 34.0041Z" fill="#2D3956"/>
<path d="M30.5508 25.3481C30.585 25.1681 30.6064 25.0266 30.6427 24.8894C30.6577 24.8315 30.7111 24.7371 30.7475 24.7371C31.2007 24.7307 31.4765 24.3513 31.8934 24.199C31.8763 24.317 31.8592 24.422 31.8442 24.527C31.8656 24.5442 31.8891 24.5635 31.9105 24.5806C31.9511 24.4992 31.9917 24.4177 32.0623 24.2784C32.229 24.5914 32.3466 24.8379 32.4899 25.0694C32.5412 25.1509 32.6759 25.1766 32.74 25.2538C32.9132 25.4639 33.0372 25.7298 33.2403 25.8991C33.6871 26.2721 34.0228 26.7481 34.5166 27.0932C34.925 27.3805 35.2799 27.2562 35.6604 27.2712C36.0687 27.2883 36.4814 27.2519 36.8918 27.2326C36.941 27.2305 36.9923 27.1983 37.0351 27.1683C37.1997 27.0504 37.3536 26.911 37.5268 26.806C37.871 26.6002 38.243 26.4415 38.568 26.2121C38.7753 26.0642 38.9742 25.852 39.0832 25.6226C39.4039 24.9515 39.669 24.2548 39.9726 23.5773C40.0709 23.3608 40.1714 23.1443 40.5156 23.185C40.7016 23.2064 40.9047 23.0221 41.1121 22.9685C41.5461 22.857 41.7941 23.1271 41.7086 23.573C41.6637 23.8067 41.6744 24.0511 41.6423 24.2891C41.6231 24.4306 41.6337 24.5978 41.405 24.6214C41.3473 24.6278 41.2746 24.8036 41.2617 24.9065C41.2254 25.2281 41.219 25.5518 41.1912 25.8734C41.1869 25.9248 41.1442 25.9763 41.11 26.0213C40.924 26.2593 40.7422 26.5037 40.5455 26.7331C40.351 26.9603 40.1543 27.1897 39.9298 27.387C39.7032 27.5863 39.4445 27.7514 39.188 27.9143C39.1324 27.9486 39.0255 27.9015 38.9293 27.8908C38.9485 27.9594 38.972 28.043 39.0041 28.1523C38.9143 28.1716 38.8416 28.2038 38.7711 28.1995C38.4953 28.1823 38.3478 28.3367 38.1703 28.5318C38.0399 28.6754 37.7663 28.6883 37.5546 28.7612C37.437 28.8019 37.3216 28.8534 37.2018 28.8748C37.0971 28.8941 36.9859 28.8769 36.8769 28.8877C36.7956 28.8962 36.7144 28.922 36.6353 28.9455C36.2804 29.0506 35.9319 29.1492 35.5578 28.9906C35.4081 28.9262 35.22 28.9627 35.0618 28.9134C34.7561 28.819 34.4375 28.8255 34.1318 28.7526C33.9779 28.7161 33.8368 28.6282 33.6807 28.5575C33.5481 28.5232 33.4135 28.5082 33.3001 28.4503C33.065 28.3324 32.8319 28.208 32.6139 28.0601C32.4001 27.9143 32.197 27.7471 32.011 27.5692C31.9233 27.4856 31.8827 27.3548 31.8228 27.2433C31.733 27.0761 31.6475 26.9046 31.5556 26.7395C31.5278 26.6902 31.4808 26.6559 31.4466 26.6087C31.3354 26.4522 31.2242 26.2936 31.1152 26.1349C31.0874 26.1478 31.0596 26.1628 31.0318 26.1757C31.0511 26.0942 31.0724 26.0149 31.0831 25.9656C31.0147 25.8755 30.91 25.7984 30.9185 25.734C30.9484 25.4618 30.8095 25.3674 30.5508 25.3481Z" fill="#2D3956"/>
<path d="M38.9442 16.974C38.7775 17.0448 38.6364 17.1563 38.5017 17.1541C37.9415 17.1412 37.3985 17.4628 36.8384 17.2549C36.6353 17.1798 36.4471 17.0383 36.2804 16.8947C36.0367 16.6867 35.8036 16.4595 35.5898 16.2194C35.468 16.0822 35.3889 15.9042 35.2969 15.7413C35.1622 15.5012 35.0104 15.2675 34.9142 15.0124C34.8287 14.783 34.7753 14.5321 34.7667 14.2877C34.7582 14.024 34.7197 13.6531 34.8672 13.5159C35.1088 13.2908 34.8651 12.9178 35.2007 12.7591C35.2991 12.7119 35.3033 12.489 35.376 12.3625C35.4637 12.2081 35.5706 12.0645 35.6796 11.9208C35.7117 11.878 35.7801 11.8265 35.8207 11.8351C36.1713 11.9037 36.4172 11.6743 36.7101 11.5671C37.0287 11.4513 37.4071 11.4749 37.7577 11.4835C38.0228 11.4899 38.2943 11.5499 38.5509 11.625C38.7069 11.67 38.9571 11.6164 38.972 11.8973C39.4295 12.0495 39.56 12.5104 39.8336 12.8341C39.964 12.9885 40.0453 13.2479 40.0282 13.4516C39.9939 13.8546 40.2313 14.1569 40.3189 14.5128C40.3403 14.6029 40.398 14.6972 40.3831 14.7787C40.3189 15.1346 40.2441 15.4904 40.1522 15.842C40.1265 15.9407 40.0282 16.02 39.9683 16.1122C39.9298 16.1722 39.8635 16.243 39.8721 16.3008C39.9127 16.586 39.7545 16.6975 39.5172 16.7682C39.4295 16.7939 39.312 16.8347 39.2799 16.9011C39.1815 17.1155 39.064 17.1155 38.9442 16.974ZM36.8811 15.0231C36.9089 15.0338 36.9367 15.0424 36.9645 15.0531C37.0009 14.9973 37.0714 14.9437 37.0693 14.888C37.0629 14.5729 37.2339 14.3992 37.5161 14.3456C37.8261 14.2877 38.0976 14.009 38.4589 14.1977C38.6086 14.2748 38.7604 14.1033 38.7069 13.9082C38.6406 13.6681 38.5316 13.4387 38.4354 13.205C38.4226 13.1729 38.3798 13.1557 38.352 13.1279C38.2173 13.0014 38.0527 12.892 37.9586 12.7398C37.8389 12.5447 37.6935 12.5361 37.5225 12.6069C37.3429 12.6798 37.2146 12.8127 37.2595 13.0292C37.3194 13.323 37.4455 13.6381 36.9709 13.6746C37.08 13.7239 37.1783 13.7689 37.2745 13.8139C37.2104 13.8954 37.1462 13.9768 37.0842 14.0583C37.0265 14.1334 36.9709 14.2105 36.8747 14.3435C36.7721 14.1591 36.7037 14.039 36.6374 13.919C36.3167 14.4614 36.9282 14.6286 36.8811 15.0231ZM37.1847 15.1281C37.1633 15.1731 37.1398 15.216 37.1184 15.261C37.2809 15.4433 37.4263 15.6427 37.6102 15.8035C37.7085 15.8892 37.871 15.9021 37.9993 15.9535C38.228 16.0457 38.4546 15.9835 38.5509 15.8163C38.6129 15.707 38.7091 15.6191 38.8309 15.4733C38.7005 15.4604 38.5722 15.4326 38.4461 15.439C38.1404 15.4519 37.8325 15.5398 37.5973 15.2117C37.5375 15.1281 37.3258 15.1538 37.1847 15.1281Z" fill="#2D3956"/>
<path d="M28.3403 19.2379C28.2355 19.1865 28.0709 19.1586 28.0346 19.075C27.9148 18.7942 27.5792 18.5991 27.6925 18.2196C27.7096 18.1617 27.6241 18.0117 27.5685 18.0031C27.2863 17.9559 27.3055 17.763 27.3333 17.5679C27.3761 17.2635 27.5856 16.9762 27.4103 16.6504C27.3975 16.6246 27.4659 16.5603 27.4872 16.511C27.5236 16.4296 27.5514 16.3438 27.5835 16.2581C27.5621 16.2452 27.5407 16.2302 27.5172 16.2173C27.4509 16.2516 27.3825 16.2859 27.2563 16.3502C27.297 16.198 27.2948 16.0308 27.3568 16.0008C27.5984 15.8915 27.5279 15.4927 27.8956 15.4734C28.0025 15.4691 28.1372 15.154 28.1799 14.9611C28.212 14.8153 28.1607 14.7124 28.3852 14.7381C28.4942 14.751 28.6439 14.6481 28.7337 14.5559C28.9581 14.3308 29.3836 14.4808 29.5268 14.1014C29.5653 14.0006 29.6508 13.9385 29.8219 13.9706C29.9779 13.9985 30.1618 13.8613 30.3371 13.8013C30.4055 13.7777 30.4825 13.7434 30.5509 13.7498C30.9592 13.7948 31.3654 13.8484 31.7716 13.9085C31.8465 13.9192 31.9106 13.9813 31.9812 14.0199C31.9619 14.0392 31.9427 14.0585 31.9234 14.0778C31.979 14.0542 32.0367 14.0306 32.0923 14.0092C32.0859 14.0392 32.0795 14.0692 32.0752 14.1014C32.1907 14.1486 32.3125 14.1829 32.4173 14.245C32.4686 14.275 32.5263 14.3672 32.5156 14.4165C32.4408 14.7788 32.6396 14.9739 32.9133 15.1411C32.9796 15.1819 33.0501 15.2462 33.0779 15.3148C33.2041 15.6256 33.3195 15.9429 33.4285 16.2602C33.452 16.3267 33.4585 16.4446 33.4178 16.4831C33.142 16.7404 33.3024 17.0834 33.2233 17.3771C33.1506 17.6494 33.048 17.9173 32.9261 18.1703C32.8834 18.2604 32.7444 18.3032 32.6225 18.389C32.6161 18.5348 32.7166 18.7727 32.4194 18.837C32.4002 18.8413 32.4066 18.9271 32.3809 18.9614C32.3275 19.0321 32.2569 19.1457 32.1971 19.1436C31.9918 19.135 31.8636 19.1865 31.8721 19.3473C31.5707 19.4459 31.3098 19.5724 31.0362 19.6109C30.6471 19.6645 30.2901 19.8403 29.933 19.9582C29.4776 20.1083 29.2275 19.7889 28.8812 19.7267C28.6545 19.6838 28.4621 19.4502 28.2548 19.3022C28.2826 19.2829 28.3125 19.2615 28.3403 19.2379ZM28.956 15.6063C28.8983 15.8593 28.8812 16.0265 28.8213 16.1787C28.5156 16.9612 28.6161 17.6858 29.189 18.2904C29.5354 18.657 29.9501 18.9935 30.5359 18.7491C30.6214 18.7127 30.7347 18.7298 30.8074 18.6805C30.94 18.5905 31.0854 18.4897 31.1687 18.359C31.297 18.1553 31.3783 17.9195 31.498 17.6537C31.5621 17.7759 31.6006 17.8445 31.6712 17.9774C31.7332 17.763 31.7738 17.6151 31.8058 17.5036C31.5664 17.1434 31.3013 17.1692 30.9806 17.3385C30.8737 17.3943 30.5787 17.3407 30.5637 17.2849C30.491 17.0127 30.2986 17.1327 30.1062 17.1199C30.0912 16.9376 30.0677 16.7618 30.0656 16.5839C30.0634 16.3717 30.0848 16.1616 30.0848 15.9493C30.0848 15.7607 29.9886 15.7221 29.8176 15.8079C29.8261 15.8529 29.839 15.8893 29.8368 15.9258C29.8325 16.0179 29.8496 16.1659 29.8069 16.1873C29.6893 16.2473 29.5867 16.2388 29.4905 16.0715C29.3921 15.9043 29.1805 15.795 28.956 15.6063ZM30.258 16.4789C30.6963 16.3116 31.0683 16.183 31.4232 16.0222C31.4809 15.9965 31.5172 15.8186 31.4894 15.7328C31.4146 15.4927 31.3013 15.2655 31.2201 15.0682C31.079 15.0875 30.925 15.1068 30.7283 15.1326C30.4419 15.2912 30.5594 15.5892 30.6556 15.8893C30.4932 15.855 30.3863 15.8314 30.211 15.7928C30.2281 16.0308 30.2409 16.2237 30.258 16.4789ZM31.7417 16.6911C31.9641 16.4574 31.9576 15.9193 31.6712 15.6492C31.6968 16.0351 31.7182 16.3459 31.7417 16.6911Z" fill="#2D3956"/>
<path d="M31.7415 16.6912C31.7179 16.3459 31.6966 16.0349 31.6709 15.6489C31.9552 15.917 31.9617 16.4574 31.7415 16.6912Z" fill="#2D3956"/>
<path d="M78.1935 15.9041C78.0706 15.8444 77.9868 15.8041 77.8192 15.7234C77.9578 15.6133 78.055 15.5363 78.1669 15.4486C77.9958 15.2814 78.0632 15.1167 78.2673 14.9269C78.4047 14.7988 78.6537 14.6949 78.5495 14.3983C78.5329 14.3496 78.7054 14.2339 78.7904 14.1477C78.7727 14.1252 78.7543 14.1055 78.7367 14.0831C78.5772 14.2052 78.415 14.3266 78.2227 14.4724C78.2032 14.2016 78.2717 13.9663 78.4942 13.9291C78.8088 13.8783 78.8417 13.7102 78.7892 13.4747C78.7352 13.2448 78.7648 13.1112 79.0337 13.0658C79.2223 13.0341 79.2596 12.8937 79.1139 12.7423C79.0607 12.6866 78.9964 12.6398 79.0012 12.644C79.2167 12.4219 79.3526 12.2551 79.515 12.1219C79.5906 12.0597 79.7199 12.0622 79.8469 12.0286C79.8081 11.7526 79.6787 11.4286 79.7477 11.1581C79.8614 10.7079 80.1054 10.29 80.2943 9.85714C80.3387 9.75701 80.4218 9.65554 80.4219 9.55525C80.4182 9.33594 80.4695 9.23179 80.7168 9.20122C81.1774 9.14565 81.1743 9.12415 81.0704 8.80403C81.2355 8.58308 81.3557 8.39725 81.4992 8.23537C81.5625 8.16395 81.6739 8.11143 81.7681 8.10146C81.8865 8.08919 82.0125 8.12616 82.1609 8.14558C82.3232 7.73507 82.4215 7.25419 83.0252 7.24906C82.9961 7.11434 82.974 7.01986 82.9395 6.87189C83.4651 7.00498 83.4443 6.49486 83.6879 6.28924C83.7565 6.23107 83.806 6.11166 83.8732 6.10326C84.4482 6.02842 84.6914 5.5247 85.0778 5.20422C85.1198 5.16836 85.1679 5.14299 85.2916 5.05543C85.2974 5.17796 85.3023 5.27073 85.3063 5.32198C85.5277 5.22245 85.687 5.15631 85.8375 5.07894C86.0521 4.97167 86.386 5.07069 86.4589 4.71866C86.5994 4.7566 86.7372 4.79379 86.8859 4.83397C87.4311 4.24953 88.3336 4.57583 88.9149 4.02182C88.9324 4.05604 88.9506 4.08751 88.9681 4.12173C89.0047 4.02837 89.0243 3.92154 89.0875 3.85012C89.1438 3.78272 89.2965 3.6971 89.3212 3.71555C89.5935 3.95725 89.828 3.80817 90.0846 3.62077C90.1699 4.12174 90.5109 3.73884 90.7275 3.86813C90.7195 3.94268 90.71 4.02272 90.6983 4.11103C91.1284 3.92624 94.1812 4.40542 94.4817 4.70783C94.5696 4.65486 94.6617 4.59713 94.7817 4.52333C94.9006 4.9537 95.2487 4.93265 95.578 4.97141C95.7471 4.99053 95.9128 5.05592 96.0635 5.15561C96.2754 5.18038 96.4912 5.17964 96.695 5.23469C97.1366 5.35097 97.5715 5.49202 98.0065 5.63308C98.1235 5.67057 98.2618 5.71677 98.3324 5.80664C98.5138 6.02379 98.6919 6.14267 98.9695 5.97574C99.0156 5.94687 99.1166 5.9889 99.184 6.01301C99.2961 6.05802 99.4001 6.1333 99.5158 6.16455C99.9491 6.2786 100.321 6.50282 100.67 6.77711C100.748 6.83945 100.842 6.89451 100.938 6.9233C101.534 7.10199 101.535 7.09924 101.864 7.65117C101.908 7.58354 101.95 7.51517 101.995 7.44755C101.998 7.48981 102.002 7.53206 102.005 7.57432C102.151 7.64626 102.304 7.70518 102.44 7.7949C102.611 7.90604 102.765 8.04798 102.935 8.16463C103.191 8.34586 103.452 8.51957 103.713 8.69328C103.83 8.77229 103.961 8.83701 104.073 8.92628C104.219 9.04524 104.365 9.17044 104.487 9.31246C104.577 9.41929 104.622 9.56123 104.699 9.67959C104.773 9.79096 104.846 9.92859 104.954 9.98736C105.308 10.1801 105.596 10.3848 105.781 10.7887C106.021 11.3078 106.324 11.8088 106.804 12.1803C106.986 12.3207 107.08 12.5763 107.212 12.7801C107.225 12.7983 107.214 12.8369 107.228 12.8433C107.51 13.023 107.51 13.2471 107.263 13.5197C107.46 13.558 107.597 13.5862 107.665 13.5986C107.743 13.8352 107.861 14.0263 107.856 14.2108C107.845 14.618 108.063 14.9334 108.203 15.2811C108.332 15.599 108.414 15.9339 108.513 16.2615C108.531 16.3255 108.539 16.3955 108.537 16.4598C108.516 17.1475 108.499 17.8333 108.462 18.5193C108.454 18.6707 108.368 18.8157 108.318 18.9703C108.676 19.1881 108.677 19.5955 108.668 19.9293C108.629 21.1991 108.306 22.4247 107.971 23.6411C107.966 23.6604 107.946 23.6787 107.93 23.7067C107.869 23.6696 107.809 23.6297 107.719 23.5762C107.731 23.6442 107.728 23.6759 107.742 23.7032C107.766 23.7659 107.83 23.8363 107.814 23.8851C107.662 24.3808 107.528 24.8845 107.33 25.3621C107.092 25.9379 106.82 26.5019 106.522 27.0468C106.355 27.3528 106.293 27.743 105.882 27.9005C105.714 27.9644 105.625 28.2117 105.461 28.3179C104.864 28.7083 104.273 29.1211 103.635 29.4326C103.014 29.7342 102.342 29.9303 101.684 30.1508C101.314 30.2752 100.933 30.3524 100.559 30.4607C100.499 30.4769 100.455 30.5508 100.396 30.5732C100.246 30.627 100.09 30.7029 99.9374 30.7C99.7086 30.6943 99.4624 30.554 99.3074 30.8485C99.3002 30.8642 99.2696 30.8796 99.2488 30.8799C98.8787 30.895 98.5057 30.9093 98.137 30.9189C98.0153 30.9215 97.8838 30.883 97.7692 30.914C97.332 31.026 96.8976 31.0828 96.4436 31.0133C96.2511 30.982 95.993 30.9978 95.8524 31.1045C95.5482 31.338 95.308 31.1197 95.0417 31.0773C94.6988 31.0231 94.3538 30.9771 94.0109 30.9229C93.926 30.9088 93.8428 30.8775 93.7106 30.8418C93.5943 30.9903 93.4173 30.9897 93.1673 30.875C92.9749 30.7877 92.724 30.832 92.5003 30.807C92.1137 30.7616 91.707 30.9144 91.3357 30.7226C91.0866 30.5934 90.8617 30.4176 90.6281 30.2631C90.535 30.2026 90.4398 30.1385 90.3474 30.0752C90.1645 30.3297 89.8381 30.3359 89.5184 30.1611C89.2268 30.0027 88.9105 29.8819 88.5955 29.7673C88.3349 29.6704 88.1473 29.543 88.2281 29.1725C87.9005 29.3495 87.6886 29.2245 87.4254 29.0708C86.8694 28.7407 86.2595 28.5023 85.681 28.2015C85.4655 28.0902 85.2295 28.0117 85.0895 27.7497C85.0088 27.5981 84.739 27.5577 84.5608 27.4506C84.3414 27.3205 84.1319 27.1755 83.9371 27.0196C83.2866 26.6345 82.6332 26.2486 81.9827 25.8634C81.9601 25.8928 81.9355 25.9186 81.913 25.9479C81.9096 25.8496 81.9054 25.7541 81.9034 25.7063C81.5247 25.4536 81.1706 25.2193 80.8043 24.9758C80.8081 24.617 80.5034 24.4639 80.2665 24.2553C79.9682 23.9889 79.6798 23.7075 79.3984 23.4221C79.3685 23.3904 79.4093 23.2922 79.419 23.2004C79.3221 23.1094 78.9584 23.1557 79.1832 22.8211C79.1938 22.8033 79.173 22.7594 79.1576 22.7286C79.0073 22.4166 78.8659 22.1041 78.7052 21.7981C78.611 21.6193 78.5697 21.4193 78.3116 21.3349C78.0886 21.2629 77.9599 20.6587 78.0514 20.4032C78.2201 19.9354 78.2155 19.9194 77.7126 19.7452C77.7597 19.3567 77.8113 18.9517 77.8546 18.5445C77.861 18.4872 77.8402 18.399 77.8012 18.3678C77.562 18.1793 77.6631 17.9765 77.7389 17.758C77.7816 17.6309 77.8314 17.4437 77.7718 17.3568C77.4334 16.8524 77.663 16.4778 77.9968 16.1107C78.0605 16.06 78.1168 15.9926 78.1935 15.9041ZM80.7787 22.8065C80.9886 22.6832 81.1642 22.6893 81.181 23.0479C81.1848 23.1226 81.297 23.2002 81.3722 23.2618C81.5846 23.4401 81.8209 23.5953 82.0214 23.7852C82.4388 24.1811 82.7805 24.6952 83.2626 24.97C83.7008 25.2211 84.036 25.6037 84.4984 25.8082C84.7128 25.9015 84.8843 26.0894 85.0928 26.2047C85.883 26.6423 86.6831 27.0648 87.4767 27.5004C87.6413 27.5921 87.7818 27.7303 87.9486 27.8137C88.4339 28.0539 88.9235 28.2894 89.421 28.5063C89.9603 28.7434 90.4934 29.026 91.0604 29.1703C91.9402 29.3931 92.847 29.5141 93.7401 29.6756C93.8077 29.6879 93.8784 29.6775 93.944 29.6864C94.712 29.7964 95.4927 29.4142 96.2575 29.7476C96.3049 29.7692 96.3715 29.7518 96.4262 29.746C96.8167 29.7098 97.2073 29.6736 97.5985 29.6347C97.8354 29.6102 98.0728 29.5946 98.3037 29.5479C98.7906 29.4492 99.2723 29.3256 99.7592 29.2269C100.168 29.1427 100.61 29.147 100.986 28.9888C101.7 28.6891 102.477 28.5212 103.102 28.0172C103.458 27.73 103.898 27.5329 104.216 27.2118C104.6 26.8228 104.949 26.3772 105.217 25.9009C105.582 25.2528 105.907 24.5736 106.15 23.8721C106.384 23.1919 106.455 22.4587 106.651 21.7653C106.961 20.675 107.102 19.58 106.941 18.451C106.899 18.1535 106.884 17.8545 106.858 17.5552C106.787 16.7751 106.767 15.9877 106.626 15.218C106.539 14.7343 106.296 14.2704 106.076 13.8188C105.891 13.4383 105.64 13.0933 105.417 12.7349C105.382 12.6783 105.34 12.6111 105.287 12.5789C105.055 12.4424 104.823 12.3149 104.924 11.9766C104.929 11.9601 104.835 11.9258 104.806 11.8886C104.555 11.5345 104.275 11.1993 104.078 10.8159C103.993 10.6483 103.929 10.5454 103.763 10.471C103.62 10.406 103.428 10.2979 103.393 10.1735C103.314 9.88082 103.107 9.79527 102.872 9.69952C102.757 9.65377 102.655 9.58473 102.531 9.51874C102.639 9.38871 102.708 9.30702 102.777 9.22534C102.767 9.1961 102.76 9.16761 102.75 9.13837C102.622 9.15117 102.438 9.11308 102.378 9.18249C102.204 9.3922 102.04 9.34206 101.868 9.22466C101.465 8.95075 101.075 8.66254 100.672 8.39138C100.531 8.29742 100.286 8.26372 100.238 8.14454C100.112 7.82122 99.9036 7.72667 99.5664 7.80671C99.5991 7.65034 99.6249 7.54224 99.6598 7.37761C99.4462 7.55891 99.306 7.59774 99.0591 7.46026C98.8046 7.3178 98.5346 7.05608 98.1761 7.17168C98.1567 7.17823 98.1192 7.14155 98.0863 7.12087C98.1007 7.03331 98.1117 6.94776 98.1208 6.89122C97.8293 6.86563 97.5519 6.87626 97.2957 6.80708C96.8093 6.68165 96.334 6.51493 95.8571 6.35372C95.7539 6.31994 95.626 6.26772 95.5713 6.18507C95.3793 5.88541 95.0518 5.8619 94.7896 5.87075C93.9248 5.90274 93.113 5.71303 92.3096 5.42527C92.2635 5.40987 92.2066 5.42401 92.1561 5.42512C91.9361 5.43063 91.7158 5.45964 91.4996 5.43963C91.3235 5.42452 91.1498 5.34514 90.9733 5.30929C90.0803 5.13602 89.3167 5.62017 88.4947 5.80236C88.4322 5.815 88.3886 5.91238 88.3345 5.97153C88.2797 6.03342 88.2248 6.09532 88.1131 6.21561C88.0973 6.01958 88.0886 5.90807 88.0765 5.74254C87.5242 5.96512 87.0027 6.16063 86.4954 6.38061C86.091 6.55759 85.7075 6.77854 85.3059 6.95626C84.8041 7.17773 84.3837 7.50379 84.0244 7.91125C83.703 8.27585 83.394 8.64967 83.0658 9.00654C82.7546 9.34436 82.3667 9.62608 82.1246 10.0033C81.7601 10.5745 81.4778 11.2034 81.1866 11.821C80.9447 12.331 80.742 12.8603 80.5186 13.3783C80.2616 13.9785 80.0065 14.5823 79.7365 15.1761C79.2091 16.3377 79.3423 17.5803 79.2844 18.7978C79.2811 18.8323 79.2806 18.8676 79.2898 18.8996C79.4272 19.3822 79.5674 19.8655 79.7213 20.4086C79.6046 20.3033 79.5302 20.239 79.4557 20.1746C79.4251 20.19 79.3972 20.206 79.3665 20.2214C79.425 20.3345 79.489 20.4491 79.5441 20.5643C79.6473 20.7869 79.9568 20.9 79.8939 21.2252C79.8813 21.2838 79.9831 21.3673 80.0381 21.4382C80.0842 21.4979 80.1513 21.5455 80.1842 21.6104C80.2794 21.819 80.3508 22.0389 80.4522 22.2463C80.5436 22.4244 80.6512 22.5862 80.7787 22.8065Z" fill="#2D3956"/>
<path d="M87.4231 22.8026C86.83 22.4923 86.8875 21.6328 86.2185 21.4523C86.1588 21.2329 86.1302 21.0189 86.041 20.8328C85.6542 20.0243 85.4871 19.166 85.4725 18.2782C85.4704 18.1863 85.5859 18.0407 85.6754 18.0148C85.9995 17.9167 86.1512 17.4685 86.6172 17.6355C87.0943 17.8055 86.9505 18.2351 87.0973 18.537C87.3729 19.1093 87.6012 19.7041 87.8942 20.2664C88.1361 20.7324 88.4246 21.1785 88.732 21.6091C88.8735 21.8093 89.1323 21.9234 89.2905 22.1163C89.5844 22.4755 89.7637 22.9216 90.2102 23.1511C90.418 23.2573 90.5799 23.4807 90.7939 23.5414C91.4744 23.7339 92.0728 24.1576 92.8374 24.1341C93.4948 24.1141 94.1548 24.2952 94.8159 24.3499C95.0554 24.3703 95.3308 24.3445 95.5389 24.2386C95.9072 24.0522 96.282 23.9412 96.6845 23.8701C96.8486 23.8408 96.9968 23.7275 97.1494 23.642C97.4824 23.455 97.8073 23.2539 98.1485 23.0808C98.3872 22.9596 98.6564 22.8909 98.8992 22.7767C99.2728 22.6035 99.6008 22.7568 99.9439 22.8759C100.395 23.033 100.567 23.6157 100.259 24.0215C100.214 24.0773 100.118 24.0955 100.045 24.1259C99.9721 24.1563 99.8455 24.1663 99.8338 24.2103C99.6923 24.7643 99.1335 24.7019 98.7783 24.939C98.7064 24.9873 98.5696 24.9916 98.5452 25.0499C98.4099 25.3699 98.1566 25.4017 97.8547 25.3939C97.6903 25.3907 97.5234 25.4635 97.3616 25.5171C96.7165 25.7349 96.0797 25.999 95.3689 25.8426C95.3186 25.832 95.2212 25.8764 95.1978 25.9201C95.0656 26.1732 94.8521 26.0773 94.6554 26.0625C94.0142 26.0102 93.372 25.9842 92.7341 25.8975C92.312 25.8426 91.8958 25.7214 91.4858 25.599C91.0785 25.4773 90.6758 25.3273 90.2808 25.1706C90.0781 25.0894 89.8956 24.9548 89.6981 24.8543C89.2702 24.6328 88.8203 24.4495 88.4206 24.1884C88.2023 24.0441 88.0715 23.7701 87.8943 23.5603C87.8114 23.4613 87.722 23.3429 87.6114 23.2924C87.3774 23.1851 87.2333 23.0725 87.4231 22.8026Z" fill="#2D3956"/>
<path d="M91.1061 11.4891C90.9646 11.5659 90.8719 11.6147 90.7819 11.6642C90.7899 11.6899 90.7998 11.7191 90.8077 11.7449C90.8803 11.7497 90.9649 11.7313 91.0176 11.7662C91.0902 11.8153 91.202 11.9281 91.1855 11.9679C91.0758 12.2363 90.9543 12.5044 90.8033 12.7499C90.7041 12.912 90.5515 13.0419 90.4194 13.1832C90.4067 13.1975 90.3726 13.2149 90.3568 13.2077C89.9669 13.008 89.7524 13.3926 89.4502 13.4851C88.8556 13.6668 88.213 13.2956 88.1239 12.6755C88.115 12.62 88.1256 12.558 88.1013 12.516C87.8812 12.1556 87.8813 11.7219 88.1258 11.4131C88.1801 11.3422 88.2838 11.2965 88.3747 11.2768C88.6294 11.2186 88.8938 11.2015 89.1411 11.1267C89.5738 10.9986 89.9886 10.9159 90.4123 11.166C90.5371 11.241 90.696 11.2544 90.8314 11.3116C90.9221 11.3479 90.9979 11.4185 91.1061 11.4891Z" fill="#2D3956"/>
<path d="M96.3759 15.1674C96.139 14.9589 95.9198 14.7728 95.7145 14.5787C95.6531 14.5208 95.5729 14.4224 95.587 14.3584C95.6283 14.1364 95.6797 13.9319 95.4124 13.8155C95.54 13.6021 95.6437 13.3675 95.804 13.1865C95.9559 13.0151 96.1559 12.8626 96.3634 12.7711C96.5207 12.7014 96.7268 12.7482 96.9109 12.733C97.0286 12.7235 97.1459 12.6932 97.2616 12.6802C97.3343 12.6733 97.4432 12.6525 97.48 12.6919C97.7088 12.9308 97.9779 12.9739 98.2891 12.9252C98.3938 12.9092 98.5086 12.955 98.6335 12.9739C98.6678 13.3668 98.697 13.7347 98.7278 14.0852C98.3344 14.2652 98.055 14.5055 97.8653 14.8526C97.7082 15.1436 97.359 15.2352 97.0092 15.0847C96.68 14.9456 96.6128 14.954 96.3759 15.1674Z" fill="#2D3956"/>
<g clip-path="url(#clip0)">
<path d="M84.3884 77.7365C84.6707 77.7923 84.7722 77.6688 84.9286 77.4359C85.1418 77.1174 85.5276 76.9083 85.8403 76.6535C85.9642 76.552 86.1225 76.4743 86.2139 76.3509C86.4535 76.0324 86.7134 75.7696 87.0566 75.5327C87.5054 75.2221 87.8201 74.7284 88.2262 74.3521C88.7176 73.8962 89.2476 73.4801 89.7552 73.0421C89.8202 72.9864 89.8649 72.9028 89.9075 72.8251C89.94 72.7694 89.936 72.6778 89.9806 72.6499C90.732 72.1801 91.2396 71.3778 92.1351 71.107C92.5067 70.9935 92.9067 70.9577 93.2641 70.8164C93.4996 70.7248 93.6722 70.7248 93.922 70.7745C94.2611 70.8402 94.6327 70.7387 94.9901 70.7049C95.0632 70.6969 95.1343 70.6571 95.2074 70.6551C96.7486 70.6133 98.2938 70.6272 99.8289 70.5157C100.753 70.45 101.583 70.5098 102.322 71.103C102.517 71.2603 102.511 71.3957 102.424 71.6067C102.359 71.764 102.337 71.9671 102.375 72.1323C102.552 72.9067 102.718 73.6812 102.688 74.4795C102.686 74.5512 102.601 74.6248 102.54 74.6846C102.272 74.9474 102.097 75.242 102.251 75.6183C102.375 75.9169 102.294 76.0423 101.961 75.9965C101.961 76.8805 101.961 77.7445 101.961 78.6344C101.587 78.6981 101.524 78.9689 101.549 79.2973C101.573 79.6218 101.423 79.9304 101.39 80.2231C101.344 80.6491 101.098 80.7706 100.85 81.0214C100.44 81.4335 100.046 81.6565 99.4533 81.5788C99.167 81.541 98.8969 81.6067 98.6431 81.8675C98.4928 82.0228 98.0725 81.9412 97.774 81.9412C97.4308 81.9392 97.0856 81.9153 96.7425 81.8914C96.3912 81.8655 96.1191 81.9929 95.9282 82.2776C95.7617 82.5285 95.5546 82.5902 95.248 82.5225C94.8073 82.425 94.3708 82.3254 93.9464 82.6758C93.6661 82.9087 92.8823 82.7256 92.5696 82.5126C92.265 82.3055 91.9625 82.1184 91.5198 82.1781C91.0305 82.2438 90.5187 82.1502 90.0152 82.1423C89.8832 82.1403 89.6639 82.0566 89.6862 82.3393C89.6882 82.3652 89.5908 82.4269 89.542 82.425C89.2456 82.419 88.945 82.3593 88.6547 82.3931C88.2465 82.4409 87.8465 82.5524 87.4445 82.64C87.3571 82.6599 87.2719 82.7077 87.1845 82.7096C86.6688 82.7276 86.1672 82.8948 85.6311 82.7833C85.4017 82.7355 85.1276 82.9067 84.8697 82.9645C84.5895 83.0282 84.3072 83.0899 84.0229 83.1218C83.6412 83.1655 83.2554 83.1715 82.8736 83.2093C82.1284 83.285 81.4218 83.1198 80.7517 82.843C80.5547 82.7614 80.3943 82.4827 80.3131 82.2597C80.1323 81.768 80.3882 81.3539 80.7131 81.0174C81.1334 80.5794 81.6025 80.1853 82.0614 79.7831C82.4533 79.4407 82.8553 79.1122 83.2615 78.7857C83.3874 78.6862 83.5539 78.6364 83.6777 78.5348C83.9417 78.3178 84.1915 78.0809 84.4453 77.854C84.427 77.8162 84.4067 77.7763 84.3884 77.7365ZM100.331 74.3023C100.465 73.7011 100.588 73.1456 100.72 72.5544C100.308 72.5344 99.9021 72.4827 99.498 72.5046C98.9761 72.5344 98.4583 72.6439 97.9364 72.6798C97.5608 72.7057 97.1303 72.5504 96.8135 72.6838C96.3465 72.8789 95.914 72.8211 95.4571 72.7972C95.2398 72.7853 95.0226 72.7952 94.8134 72.7952C94.6753 73.3208 95.2723 73.5796 95.1322 74.1311C95.0368 74.5074 95.3495 74.9832 95.4815 75.4232C95.581 75.3953 95.6724 75.3714 95.8064 75.3336C95.7983 75.4889 95.7901 75.6023 95.784 75.7158C95.7698 76.0085 96.249 76.9521 96.4886 76.9999C96.8359 77.0676 96.8562 77.3065 96.9212 77.5653C97.0166 77.9456 97.1506 78.3178 97.2725 78.6921C97.2785 78.714 97.307 78.7359 97.3293 78.7419C97.6481 78.8414 97.9182 79.2874 98.3141 78.8852C98.3365 78.8633 98.3954 78.8574 98.4299 78.8673C98.7426 78.9569 98.968 78.8574 99.1 78.5229C99.1548 78.6901 99.1893 78.7996 99.2238 78.9091C99.2604 78.9032 99.2969 78.8992 99.3335 78.8932C99.3335 78.6762 99.3213 78.4592 99.3375 78.2442C99.3518 78.0152 99.3721 77.7823 99.4249 77.5613C99.5 77.2527 99.6523 76.9581 99.697 76.6455C99.7599 76.2056 99.7558 75.7536 99.7802 75.3157C100.491 75.1743 100.002 74.6328 100.113 74.2725C100.196 74.2824 100.28 74.2944 100.331 74.3023ZM88.811 77.9575C88.8131 77.9854 88.8131 78.0132 88.8151 78.0411C88.7846 78.061 88.7481 78.1028 88.7217 78.0969C88.0821 77.9694 87.6902 78.4473 87.4323 78.8175C87.1439 79.2356 86.8718 79.5621 86.3987 79.7493C86.3134 79.7831 86.2403 80.0101 86.2667 80.1255C86.3297 80.3963 86.1936 80.454 85.9784 80.462C85.8484 80.466 85.7164 80.448 85.5865 80.4401C85.5844 80.4799 85.5804 80.5197 85.5783 80.5615C85.7103 80.5715 85.8444 80.6053 85.9723 80.5874C86.5185 80.5118 87.0607 80.4122 87.6049 80.3366C88.3196 80.239 89.0364 80.1554 89.7512 80.0618C89.7898 80.0559 89.8202 80.0041 89.8771 79.9563C89.7268 79.8826 89.607 79.8229 89.4446 79.7433C89.6395 79.5143 89.806 79.3192 89.9624 79.1361C90.0416 79.3013 90.1228 79.4686 90.204 79.6358C90.2527 79.6139 90.3015 79.592 90.3522 79.5701C90.074 78.9529 89.7938 78.3358 89.538 77.7704C89.1664 77.7106 88.8435 77.6589 88.4841 77.6011C88.4597 77.6768 88.4232 77.7943 88.3805 77.9217C88.545 77.9336 88.679 77.9456 88.811 77.9575ZM97.9811 79.1759C97.9771 79.2177 97.975 79.2595 97.971 79.3013C98.1354 79.367 98.2979 79.4546 98.4685 79.4905C98.5334 79.5044 98.6248 79.4009 98.704 79.3511C98.6492 79.2914 98.5984 79.1898 98.5375 79.1819C98.3547 79.162 98.1659 79.1759 97.9811 79.1759Z" fill="#2D3956"/>
</g>
<g clip-path="url(#clip1)">
<path d="M101.388 77.7365C101.671 77.7923 101.772 77.6688 101.929 77.4359C102.142 77.1174 102.528 76.9083 102.84 76.6535C102.964 76.552 103.123 76.4743 103.214 76.3509C103.454 76.0324 103.713 75.7696 104.057 75.5327C104.505 75.2221 104.82 74.7284 105.226 74.3521C105.718 73.8962 106.248 73.4801 106.755 73.0421C106.82 72.9864 106.865 72.9028 106.908 72.8251C106.94 72.7694 106.936 72.6778 106.981 72.6499C107.732 72.1801 108.24 71.3778 109.135 71.107C109.507 70.9935 109.907 70.9577 110.264 70.8164C110.5 70.7248 110.672 70.7248 110.922 70.7745C111.261 70.8402 111.633 70.7387 111.99 70.7049C112.063 70.6969 112.134 70.6571 112.207 70.6551C113.749 70.6133 115.294 70.6272 116.829 70.5157C117.753 70.45 118.583 70.5098 119.322 71.103C119.517 71.2603 119.511 71.3957 119.424 71.6067C119.359 71.764 119.337 71.9671 119.375 72.1323C119.552 72.9067 119.718 73.6812 119.688 74.4795C119.686 74.5512 119.601 74.6248 119.54 74.6846C119.272 74.9474 119.097 75.242 119.251 75.6183C119.375 75.9169 119.294 76.0423 118.961 75.9965C118.961 76.8805 118.961 77.7445 118.961 78.6344C118.587 78.6981 118.524 78.9689 118.549 79.2973C118.573 79.6218 118.423 79.9304 118.39 80.2231C118.344 80.6491 118.098 80.7706 117.85 81.0214C117.44 81.4335 117.046 81.6565 116.453 81.5788C116.167 81.541 115.897 81.6067 115.643 81.8675C115.493 82.0228 115.072 81.9412 114.774 81.9412C114.431 81.9392 114.086 81.9153 113.742 81.8914C113.391 81.8655 113.119 81.9929 112.928 82.2776C112.762 82.5285 112.555 82.5902 112.248 82.5225C111.807 82.425 111.371 82.3254 110.946 82.6758C110.666 82.9087 109.882 82.7256 109.57 82.5126C109.265 82.3055 108.962 82.1184 108.52 82.1781C108.03 82.2438 107.519 82.1502 107.015 82.1423C106.883 82.1403 106.664 82.0566 106.686 82.3393C106.688 82.3652 106.591 82.4269 106.542 82.425C106.246 82.419 105.945 82.3593 105.655 82.3931C105.247 82.4409 104.847 82.5524 104.444 82.64C104.357 82.6599 104.272 82.7077 104.185 82.7096C103.669 82.7276 103.167 82.8948 102.631 82.7833C102.402 82.7355 102.128 82.9067 101.87 82.9645C101.589 83.0282 101.307 83.0899 101.023 83.1218C100.641 83.1655 100.255 83.1715 99.8736 83.2093C99.1284 83.285 98.4218 83.1198 97.7517 82.843C97.5547 82.7614 97.3943 82.4827 97.3131 82.2597C97.1323 81.768 97.3882 81.3539 97.7131 81.0174C98.1334 80.5794 98.6025 80.1853 99.0614 79.7831C99.4533 79.4407 99.8553 79.1122 100.261 78.7857C100.387 78.6862 100.554 78.6364 100.678 78.5348C100.942 78.3178 101.191 78.0809 101.445 77.854C101.427 77.8162 101.407 77.7763 101.388 77.7365ZM117.331 74.3023C117.465 73.7011 117.588 73.1456 117.72 72.5544C117.308 72.5344 116.902 72.4827 116.498 72.5046C115.976 72.5344 115.458 72.6439 114.936 72.6798C114.561 72.7057 114.13 72.5504 113.814 72.6838C113.347 72.8789 112.914 72.8211 112.457 72.7972C112.24 72.7853 112.023 72.7952 111.813 72.7952C111.675 73.3208 112.272 73.5796 112.132 74.1311C112.037 74.5074 112.349 74.9832 112.481 75.4232C112.581 75.3953 112.672 75.3714 112.806 75.3336C112.798 75.4889 112.79 75.6023 112.784 75.7158C112.77 76.0085 113.249 76.9521 113.489 76.9999C113.836 77.0676 113.856 77.3065 113.921 77.5653C114.017 77.9456 114.151 78.3178 114.272 78.6921C114.279 78.714 114.307 78.7359 114.329 78.7419C114.648 78.8414 114.918 79.2874 115.314 78.8852C115.336 78.8633 115.395 78.8574 115.43 78.8673C115.743 78.9569 115.968 78.8574 116.1 78.5229C116.155 78.6901 116.189 78.7996 116.224 78.9091C116.26 78.9032 116.297 78.8992 116.333 78.8932C116.333 78.6762 116.321 78.4592 116.338 78.2442C116.352 78.0152 116.372 77.7823 116.425 77.5613C116.5 77.2527 116.652 76.9581 116.697 76.6455C116.76 76.2056 116.756 75.7536 116.78 75.3157C117.491 75.1743 117.002 74.6328 117.113 74.2725C117.196 74.2824 117.28 74.2944 117.331 74.3023ZM105.811 77.9575C105.813 77.9854 105.813 78.0132 105.815 78.0411C105.785 78.061 105.748 78.1028 105.722 78.0969C105.082 77.9694 104.69 78.4473 104.432 78.8175C104.144 79.2356 103.872 79.5621 103.399 79.7493C103.313 79.7831 103.24 80.0101 103.267 80.1255C103.33 80.3963 103.194 80.454 102.978 80.462C102.848 80.466 102.716 80.448 102.586 80.4401C102.584 80.4799 102.58 80.5197 102.578 80.5615C102.71 80.5715 102.844 80.6053 102.972 80.5874C103.519 80.5118 104.061 80.4122 104.605 80.3366C105.32 80.239 106.036 80.1554 106.751 80.0618C106.79 80.0559 106.82 80.0041 106.877 79.9563C106.727 79.8826 106.607 79.8229 106.445 79.7433C106.64 79.5143 106.806 79.3192 106.962 79.1361C107.042 79.3013 107.123 79.4686 107.204 79.6358C107.253 79.6139 107.301 79.592 107.352 79.5701C107.074 78.9529 106.794 78.3358 106.538 77.7704C106.166 77.7106 105.844 77.6589 105.484 77.6011C105.46 77.6768 105.423 77.7943 105.381 77.9217C105.545 77.9336 105.679 77.9456 105.811 77.9575ZM114.981 79.1759C114.977 79.2177 114.975 79.2595 114.971 79.3013C115.135 79.367 115.298 79.4546 115.468 79.4905C115.533 79.5044 115.625 79.4009 115.704 79.3511C115.649 79.2914 115.598 79.1898 115.538 79.1819C115.355 79.162 115.166 79.1759 114.981 79.1759Z" fill="#2D3956"/>
</g>
<defs>
<clipPath id="clip0">
<rect width="34" height="20" fill="white" transform="translate(76 66.958)"/>
</clipPath>
<clipPath id="clip1">
<rect width="34" height="20" fill="white" transform="translate(93 66.958)"/>
</clipPath>
</defs>
</svg>
