<svg width="223" height="40" viewBox="0 0 223 40" fill="none" xmlns="http://www.w3.org/2000/svg">
<path d="M20.7342 26.5938C20.3136 25.7594 19.559 25.2273 18.9306 24.5953C16.3304 21.9247 13.6881 19.3066 11.0953 16.6385C9.68258 15.1846 9.37828 13.2635 10.1947 11.5972C11.0112 9.9309 12.6688 9.03405 14.5738 9.2414C15.7415 9.36881 16.6248 10.0158 17.4289 10.8253C20.5759 13.9896 23.727 17.149 26.8822 20.3034C28.8219 22.4568 30.8572 24.512 32.9882 26.4689C33.7304 27.2359 34.4875 27.9678 35.1703 28.7822C35.7022 29.4118 36.0758 29.5167 36.6547 28.8197C37.3104 28.0453 38.0971 27.3833 38.827 26.6713C41.1031 28.42 42.9463 30.6309 44.9478 32.6669C43.0477 34.573 41.155 36.4867 39.2574 38.3853C37.1248 40.5038 34.7621 40.4963 32.622 38.4103C30.6675 36.5066 28.8788 34.4307 26.7932 32.6644C24.917 30.4999 22.8924 28.4713 20.7342 26.5938Z" fill="#F0AE22"/>
<path d="M44.9583 32.6701C42.9568 30.6316 41.1136 28.4232 38.8375 26.6745C38.1992 25.3279 36.8583 24.611 35.9998 23.4593C37.9196 21.3608 39.9286 19.3548 41.987 17.3987C43.1325 18.2581 43.8648 19.5821 45.1538 20.2816C45.9182 21.6481 47.1825 22.5499 48.2414 23.6367C49.1568 24.5735 49.9287 25.6852 51.1336 26.3097C51.7422 27.5263 52.8926 28.2483 53.7684 29.2176C54.2459 29.7447 54.4884 29.1152 54.7308 28.8754C57.6816 25.9175 60.6216 22.9488 63.5508 19.9693C64.4217 19.085 65.3816 18.4429 66.6657 18.4005C68.4915 18.3405 69.8572 19.085 70.7009 20.7263C71.1142 21.4782 71.28 22.3433 71.1741 23.1967C71.0683 24.05 70.6963 24.8471 70.112 25.4728C68.7439 26.9717 67.2867 28.3807 65.8616 29.8222C63.1599 32.5602 60.4541 35.2957 57.7442 38.0287C55.1415 40.6568 52.9718 40.6368 50.3221 37.9888C48.5531 36.2076 46.7545 34.4413 44.9583 32.6701Z" fill="#E66450"/>
<path d="M125.16 16.3214C125.63 14.0456 125.63 14.0456 127.904 14.0456C130.047 14.0456 130.047 14.0456 130.047 16.1815C130.047 22.2571 130.027 28.3327 130.069 34.4183C130.069 35.3052 129.836 35.5875 128.973 35.505C128.193 35.4226 127.407 35.4226 126.628 35.505C125.638 35.62 125.284 35.2302 125.353 34.2734C125.384 34.0916 125.376 33.9053 125.329 33.7269C125.283 33.5486 125.199 33.3823 125.084 33.2392C123.216 35.2977 120.838 36.0646 118.186 35.8848C114.002 35.6 111.259 33.3016 109.819 29.3895C108.772 26.5315 108.767 23.5987 109.628 20.6858C111.991 12.7065 121.056 11.8547 125.16 16.3214ZM124.967 24.6329C124.826 23.5712 125.368 22.1822 124.72 21.0405C123.661 19.1469 121.964 18.1326 119.732 18.1751C117.605 18.2151 115.982 19.1744 115.032 21.058C113.809 23.4962 113.839 26.0394 115.019 28.4901C116.13 30.7909 118.713 31.8477 121.308 31.2056C123.624 30.6336 124.953 28.8149 124.953 26.2093L124.967 24.6329Z" fill="#2A2C2E"/>
<path d="M214.581 26.3384C212.436 26.3384 210.294 26.3734 208.149 26.3209C207.372 26.3034 207.1 26.5258 207.246 27.3202C207.57 29.0689 208.377 30.4879 210.096 31.0875C212.803 32.0368 215.386 31.8369 217.548 29.726C218.043 29.2538 218.29 29.2663 218.728 29.686C219.238 30.1681 219.802 30.5903 220.346 31.0375C221.665 32.1292 221.665 32.1292 220.415 33.2409C217.053 36.2387 211.261 36.8058 207.211 34.53C203.381 32.3715 201.335 27.64 202.152 22.826C203.292 16.1483 208.822 12.391 215.168 13.9924C219.156 14.9916 221.816 18.624 222.095 23.418C222.261 26.3409 222.261 26.3409 219.416 26.3409L214.581 26.3384ZM212.075 22.7085C213.513 22.7085 214.95 22.7085 216.387 22.7085C216.823 22.7085 217.162 22.746 217.13 22.0815C216.981 19.5833 214.97 17.7272 212.32 17.7272C209.67 17.7272 207.404 19.6408 207.241 22.0066C207.201 22.5661 207.36 22.726 207.899 22.7135C209.284 22.6911 210.68 22.7085 212.075 22.7085Z" fill="#2A2C2E"/>
<path d="M41.9859 17.3984C39.9275 19.3545 37.9186 21.3605 35.9987 23.459L32.9878 26.4569C30.8436 24.5049 28.8083 22.4498 26.8818 20.2913L29.8507 17.246C31.9363 15.3074 33.9255 13.2714 35.8627 11.1829C39.0542 7.99772 42.2507 4.81502 45.4249 1.60734C46.5728 0.448182 47.8989 -0.231326 49.5318 0.0909402C52.8718 0.752961 54.1707 4.65763 51.8822 7.26325C50.6823 8.62976 49.3364 9.87136 48.0622 11.1729C46.0368 13.2464 44.0114 15.3216 41.9859 17.3984Z" fill="#1DAC94"/>
<path d="M20.7364 26.5942C22.8946 28.4725 24.9193 30.5019 26.7953 32.6673C24.9027 34.5809 23.0224 36.507 21.105 38.4131C18.9823 40.5241 16.5973 40.5341 14.477 38.4131C10.3536 34.2761 6.24747 30.1241 2.15868 25.9571C0.243758 23.9861 0.174485 21.3979 1.93601 19.6117C3.66785 17.863 6.28293 17.9379 8.22011 19.8615C11.189 22.8144 14.1249 25.7939 17.0278 28.8001C17.6339 29.4296 17.9852 29.4671 18.5542 28.8001C19.2247 28.0156 20.004 27.3261 20.7364 26.5942Z" fill="#1CAC94"/>
<path d="M88.0481 19.7733C88.0481 14.9443 88.0654 10.1153 88.0308 5.28382C88.0308 4.4894 88.204 4.17213 89.0451 4.22958C90.1566 4.29953 91.2712 4.29953 92.3826 4.22958C93.1471 4.18462 93.3723 4.42694 93.3549 5.19888C93.3154 8.44653 93.3376 11.6942 93.3376 14.9418C93.3376 19.8133 93.3723 24.6848 93.3129 29.5562C93.3005 30.578 93.6246 30.7704 94.5499 30.7604C98.4663 30.7104 102.385 30.7604 106.302 30.7204C107.086 30.7204 107.403 30.8903 107.338 31.7397C107.249 32.9338 107.717 34.5101 107.123 35.2371C106.5 36.0016 104.896 35.457 103.704 35.462C98.8375 35.4894 93.9735 35.462 89.107 35.4969C88.2287 35.4969 88.0184 35.2471 88.0258 34.3852C88.0704 29.5163 88.0481 24.6448 88.0481 19.7733Z" fill="#2A2C2E"/>
<path d="M155.075 23.9477C155.075 22.3663 155.053 20.785 155.075 19.2011C155.088 18.624 154.934 18.3293 154.333 18.4192C154.251 18.4292 154.168 18.4292 154.086 18.4192C153.116 18.3293 151.599 18.8664 151.287 18.2068C150.805 17.1876 151.122 15.7811 151.094 14.5395C151.094 14.0399 151.399 14.0399 151.753 14.0399C152.411 14.0399 153.081 13.9599 153.732 14.0573C154.924 14.2372 155.159 13.7026 155.1 12.6234C155.016 11.047 155.115 9.46068 155.063 7.87683C155.038 7.13986 155.196 6.82509 156 6.87755C157.111 6.93376 158.225 6.93376 159.336 6.87755C159.986 6.85257 160.189 7.0849 160.177 7.73443C160.14 9.43819 160.231 11.1495 160.137 12.8482C160.08 13.885 160.456 14.0973 161.374 14.0499C162.772 13.9774 164.177 14.0798 165.58 14.0149C166.364 13.9774 166.607 14.2647 166.533 15.0142C166.421 16.1209 167.003 17.5973 166.285 18.2393C165.672 18.7839 164.247 18.4167 163.18 18.4192C160.164 18.4192 160.164 18.4192 160.164 21.417C160.164 23.3281 160.234 25.2467 160.149 27.1629C159.979 30.9776 162.468 31.847 165.404 31.0076C166.196 30.7827 166.592 30.7802 166.733 31.6871C166.845 32.129 166.992 32.5609 167.173 32.9786C167.802 34.8473 167.779 34.9097 165.855 35.4768C164.148 35.9951 162.337 36.0502 160.602 35.6367C157.233 34.8348 155.273 32.2817 155.112 28.4369C155.05 26.938 155.112 25.4391 155.112 23.9402L155.075 23.9477Z" fill="#2A2C2E"/>
<path d="M137.713 24.0559C137.713 22.4746 137.678 20.8932 137.728 19.3094C137.752 18.5849 137.507 18.42 136.82 18.405C133.391 18.3301 133.405 18.3126 133.71 14.7452C133.757 14.2056 133.922 13.9957 134.452 14.0432C134.655 14.0632 134.863 14.0432 135.07 14.0432C137.718 14.0432 137.718 14.0432 137.718 11.3077C137.718 10.0986 137.742 8.89193 137.718 7.6853C137.703 7.10822 137.854 6.86589 138.46 6.88838C139.613 6.93085 140.771 6.93834 141.923 6.88838C142.599 6.8584 142.765 7.10822 142.75 7.75025C142.71 9.45652 142.787 11.1653 142.715 12.869C142.678 13.7709 142.883 14.1181 143.853 14.0682C145.338 13.9782 146.822 14.0682 148.307 14.0307C148.952 14.0132 149.187 14.2106 149.153 14.8726C149.103 15.7879 149.103 16.7053 149.153 17.6206C149.195 18.3226 148.89 18.45 148.282 18.435C146.797 18.4 145.313 18.4725 143.829 18.4075C142.977 18.3701 142.695 18.6099 142.715 19.5042C142.775 22.0824 142.715 24.6655 142.737 27.2486C142.752 30.5487 144.702 32.0427 147.861 31.0509C148.851 30.7411 149.259 30.876 149.412 31.8978C149.512 32.3004 149.647 32.6933 149.816 33.0719C150.395 34.7832 150.382 34.8481 148.695 35.3977C146.684 36.0748 144.511 36.087 142.493 35.4327C139.672 34.5234 137.881 32.0277 137.752 28.805C137.69 27.2261 137.752 25.6423 137.752 24.0584L137.713 24.0559Z" fill="#2A2C2E"/>
<path d="M191.284 13.676C194.634 13.6335 197.355 14.8851 199.431 17.5781C199.893 18.1802 199.891 18.5125 199.248 18.9397C198.431 19.4988 197.642 20.0991 196.885 20.7384C196.459 21.0881 196.249 20.9882 195.913 20.5835C194.035 18.2651 191.954 17.5856 189.507 18.41C187.261 19.1595 185.843 21.3229 185.717 24.1359C185.628 25.2566 185.755 26.384 186.091 27.456C186.811 29.522 188.149 30.9185 190.358 31.3257C192.568 31.7329 194.386 31.0384 195.712 29.2872C196.373 28.4103 196.803 28.4278 197.476 29.1448C197.811 29.4535 198.167 29.7374 198.543 29.9942C200.21 31.3057 200.237 31.3357 198.698 32.8921C195.645 35.9773 191.912 36.5344 187.954 35.3803C183.995 34.2261 181.632 31.3582 180.779 27.2811C180.286 24.9452 180.476 22.5151 181.326 20.2862C182.869 16.1667 186.613 13.6985 191.284 13.676Z" fill="#2A2C2E"/>
<path d="M35.8654 11.195C33.9282 13.2835 31.939 15.3195 29.8534 17.2581C26.647 14.0304 23.4308 10.8227 20.2516 7.56759C18.3886 5.66147 18.3342 3.07085 20.0314 1.32211C21.7781 -0.481581 24.3659 -0.449104 26.2908 1.477C29.5046 4.69717 32.6763 7.95481 35.8654 11.195Z" fill="#E66551"/>
<path d="M51.1385 26.3093C49.9336 25.6848 49.1592 24.5606 48.2463 23.6362C47.1874 22.5495 45.9232 21.6377 45.1587 20.2812C48.3997 16.991 51.6036 13.641 54.9065 10.4008C55.7027 9.59581 56.7831 9.14316 57.9098 9.14246C59.0366 9.14175 60.1175 9.59305 60.9147 10.3971C61.712 11.2011 62.1602 12.292 62.1609 13.4297C62.1616 14.5675 61.7147 15.6589 60.9184 16.4639C57.6972 19.7865 54.3993 23.0317 51.1385 26.3093Z" fill="#F0AE23"/>
<path d="M171.113 24.7353C171.113 21.5301 171.145 18.3224 171.09 15.1198C171.076 14.2254 171.338 13.9631 172.201 14.0306C173.148 14.103 174.098 14.103 175.044 14.0306C175.915 13.9606 176.15 14.2629 176.143 15.1348C176.103 20.0887 176.123 25.0426 176.123 29.999C176.123 31.4979 176.088 32.9968 176.138 34.4957C176.16 35.2152 176.034 35.55 175.215 35.495C173.903 35.4051 172.189 35.9372 171.38 35.2802C170.571 34.6231 171.15 32.782 171.133 31.4829C171.081 29.232 171.113 26.9837 171.113 24.7353Z" fill="#2A2C2E"/>
<path d="M173.605 10.3603C173.193 10.3675 172.784 10.2896 172.404 10.1314C172.023 9.97319 171.678 9.73805 171.391 9.44041C171.104 9.14278 170.88 8.78894 170.733 8.40065C170.586 8.01236 170.519 7.59784 170.537 7.18256C170.534 6.76674 170.614 6.35463 170.774 5.97114C170.933 5.58765 171.167 5.24075 171.463 4.95142C171.759 4.66209 172.11 4.43634 172.494 4.28781C172.879 4.13929 173.29 4.07108 173.701 4.0873C174.115 4.08394 174.526 4.16425 174.909 4.32348C175.292 4.48272 175.64 4.71769 175.931 5.01456C176.223 5.31143 176.453 5.66421 176.608 6.05217C176.763 6.44013 176.839 6.85543 176.833 7.27366C176.827 7.69188 176.737 8.10458 176.571 8.4875C176.404 8.87042 176.163 9.21582 175.862 9.50339C175.562 9.79097 175.207 10.0149 174.819 10.1621C174.431 10.3092 174.018 10.3766 173.605 10.3603Z" fill="#2A2C2E"/>
</svg>
