<svg width="40" height="40" viewBox="0 0 40 40" fill="none" xmlns="http://www.w3.org/2000/svg">
<path fill-rule="evenodd" clip-rule="evenodd" d="M34.5827 15.8334C34.5827 20.9968 31.2232 26.0071 27.5395 29.8955C25.7317 31.8036 23.9183 33.3658 22.5549 34.4514C22.0475 34.8555 21.6044 35.192 21.2494 35.4543C20.8944 35.192 20.4512 34.8555 19.9439 34.4514C18.5805 33.3658 16.7671 31.8036 14.9593 29.8955C11.2756 26.0071 7.91606 20.9968 7.91606 15.8334C7.91606 12.2971 9.32081 8.90575 11.8213 6.40527C14.3218 3.90478 17.7132 2.50003 21.2494 2.50003C24.7856 2.50003 28.177 3.90478 30.6775 6.40527C33.178 8.90575 34.5827 12.2971 34.5827 15.8334ZM36.2494 15.8334C36.2494 27.5 21.2494 37.5 21.2494 37.5C21.2494 37.5 6.24939 27.5 6.24939 15.8334C6.24939 11.8551 7.82974 8.0398 10.6428 5.22676C13.4558 2.41371 17.2711 0.833359 21.2494 0.833359C25.2276 0.833359 29.0429 2.41371 31.856 5.22676C34.669 8.0398 36.2494 11.8551 36.2494 15.8334ZM24.5827 15.8334C24.5827 17.6743 23.0903 19.1667 21.2494 19.1667C19.4084 19.1667 17.9161 17.6743 17.9161 15.8334C17.9161 13.9924 19.4084 12.5 21.2494 12.5C23.0903 12.5 24.5827 13.9924 24.5827 15.8334ZM21.2494 20.8334C24.0108 20.8334 26.2494 18.5948 26.2494 15.8334C26.2494 13.0719 24.0108 10.8334 21.2494 10.8334C18.488 10.8334 16.2494 13.0719 16.2494 15.8334C16.2494 18.5948 18.488 20.8334 21.2494 20.8334Z" fill="#4B5A82"/>
</svg>
