<svg width="161" height="40" viewBox="0 0 161 40" fill="none" xmlns="http://www.w3.org/2000/svg">
<path d="M139.139 18.2738C136.229 18.2738 133.423 18.2738 130.617 18.2738C130.044 18.3088 129.473 18.1674 128.98 17.8684C128.663 17.6893 128.408 17.4158 128.251 17.0852C128.094 16.7546 128.042 16.3831 128.102 16.0215C128.138 15.6558 128.281 15.3094 128.513 15.026C128.745 14.7426 129.055 14.5351 129.404 14.4298C129.842 14.3056 130.297 14.2548 130.751 14.2797H138.157C138.439 14.2797 138.834 14.4223 138.975 14.0695C139.117 13.7166 138.744 13.5439 138.544 13.3187C136.668 11.4192 134.778 9.56483 132.917 7.62784C132.577 7.34974 132.344 6.95977 132.26 6.52611C132.175 6.09244 132.245 5.64266 132.456 5.2554C132.665 4.88693 132.987 4.59693 133.373 4.42903C133.76 4.26114 134.19 4.22443 134.599 4.32444C135.057 4.42483 135.463 4.69214 135.738 5.07522C137.531 6.88457 139.332 8.70144 141.141 10.5033C141.401 10.7661 141.587 11.1264 141.997 11.209C142.339 10.9988 142.205 10.661 142.205 10.3757C142.205 7.87309 142.205 5.348 142.205 2.80038C142.19 2.53281 142.19 2.26462 142.205 1.99705C142.227 1.472 142.445 0.974717 142.815 0.60451C143.185 0.234303 143.679 0.0184278 144.2 0C144.715 0.0291397 145.198 0.260861 145.546 0.645445C145.894 1.03003 146.079 1.53683 146.06 2.05711C146.06 4.73737 146.06 7.41762 146.06 10.0904C146.06 10.4432 145.83 10.9688 146.261 11.1264C146.693 11.2841 146.864 10.7435 147.125 10.4883C148.933 8.69393 150.727 6.86956 152.528 5.0602C152.884 4.62343 153.397 4.34666 153.955 4.29039C154.513 4.23411 155.07 4.40291 155.505 4.75989C156.361 5.55571 156.301 6.8095 155.326 7.76298C153.57 9.55732 151.776 11.3291 150.02 13.131C149.752 13.4088 149.179 13.6265 149.38 14.092C149.581 14.5575 150.072 14.2496 150.429 14.2496C152.937 14.2496 155.445 14.2496 157.953 14.2496C159.553 14.2496 160.417 15.2106 160.186 16.5921C160.022 17.6131 159.218 18.2137 157.909 18.2212C155.363 18.2212 152.818 18.2212 150.273 18.2212C149.953 18.2212 149.528 18.0335 149.35 18.4089C149.171 18.7843 149.655 18.972 149.878 19.2047C151.664 21.0216 153.473 22.831 155.267 24.6478C156.271 25.6614 156.375 26.9001 155.542 27.6509C154.708 28.4017 153.547 28.3491 152.565 27.3356C150.786 25.5563 149.022 23.7619 147.236 21.9901C146.961 21.7198 146.745 21.1492 146.284 21.3444C145.822 21.5396 146.12 22.0351 146.12 22.403C146.12 24.9632 146.12 27.5308 146.12 30.0909C146.12 31.4874 145.413 32.3432 144.289 32.4108C144.004 32.4038 143.724 32.3378 143.466 32.2169C143.207 32.0961 142.976 31.9228 142.787 31.7081C142.598 31.4933 142.455 31.2416 142.366 30.9685C142.278 30.6955 142.246 30.407 142.272 30.121C142.272 27.5533 142.272 24.9932 142.272 22.4331C142.272 22.0652 142.391 21.6823 142.146 21.3294C141.759 21.2694 141.617 21.5922 141.401 21.7949C139.571 23.6268 137.755 25.4737 135.924 27.3056C134.882 28.3491 133.609 28.4693 132.82 27.6284C132.031 26.7875 132.076 25.6464 133.207 24.5127C134.949 22.7484 136.705 20.9991 138.417 19.2573C138.757 19.0176 139.011 18.6722 139.139 18.2738ZM148.234 14.5199C147.879 14.4659 147.52 14.4433 147.162 14.4524C146.165 14.5875 145.748 14.1971 145.889 13.176C145.889 12.9058 146.142 12.5079 145.77 12.3502C145.398 12.1925 145.234 12.5904 145.026 12.8082C144.43 13.5589 143.857 13.7016 143.24 12.8082C143.125 12.6537 142.984 12.5215 142.823 12.4178C142.57 12.2451 142.324 12.3727 142.376 12.643C142.719 14.4599 141.565 14.5049 140.315 14.4749C140.315 14.4749 140.248 14.5875 140.188 14.6926C140.583 15.128 141.193 15.5184 141.342 16.0365C141.55 16.7873 140.598 16.9674 140.315 17.538C139.958 18.2513 140.605 18.0786 140.873 18.041C141.989 17.9059 142.548 18.2738 142.361 19.4825C142.361 19.6852 142.272 19.9705 142.548 20.0756C142.823 20.1807 142.979 19.948 143.098 19.7753C143.843 18.7543 144.505 18.8444 145.204 19.7753C145.324 19.9405 145.495 20.1507 145.763 19.978C145.978 18.2813 145.978 18.2813 147.571 18.0335C147.757 18.0335 148.01 18.0335 148.01 17.7858C148.01 17.538 147.847 17.4629 147.735 17.3203C146.767 16.1566 146.767 16.1566 147.809 15.0154C147.943 15.0154 148.018 14.8503 148.234 14.55V14.5199Z" fill="#BB9B61"/>
<path d="M9.02376 32.4631C5.20582 32.2829 2.28097 30.6762 0.56923 27.1025C0.226881 26.3518 0.152457 25.9389 1.06787 25.646C1.78193 25.3898 2.4658 25.055 3.10708 24.6475C3.74712 24.2646 4.10435 24.2872 4.45414 25.0604C4.78728 25.8587 5.31082 26.5616 5.97821 27.1064C6.6456 27.6513 7.43614 28.0214 8.27952 28.1837C9.2833 28.3995 10.3296 28.2755 11.2565 27.8308C11.7723 27.6256 12.2198 27.2767 12.5466 26.8247C12.8734 26.3728 13.066 25.8364 13.1022 25.2782C13.1525 24.6843 13.0265 24.0887 12.7403 23.5673C12.454 23.0459 12.0204 22.6222 11.4946 22.3502C10.1029 21.4718 8.51767 21.1264 7.0292 20.5108C4.8858 19.6549 2.87636 18.6714 1.81955 16.4491C0.0557066 12.6202 1.81955 7.43984 7.42365 6.4338C9.26974 6.11601 11.1682 6.40395 12.84 7.25532C14.5119 8.10668 15.8689 9.47657 16.7117 11.1637C17.0094 11.7643 17.0317 12.1021 16.3322 12.3874C15.5558 12.6941 14.8085 13.071 14.0994 13.5136C13.4743 13.904 13.2212 13.7688 12.8938 13.1457C12.0081 11.3964 10.6313 10.3078 8.51767 10.5105C7.85092 10.55 7.21449 10.805 6.70249 11.2376C6.1905 11.6703 5.83013 12.2577 5.67469 12.913C5.45142 13.9866 6.02448 15.0151 7.31945 15.7659C7.77825 16.0286 8.25302 16.2618 8.74094 16.4641C10.4476 17.089 12.1218 17.8006 13.7571 18.5963C16.6745 20.218 17.9546 22.6655 17.5378 25.8863C17.3296 27.3703 16.6827 28.7566 15.6817 29.8642C14.6807 30.9717 13.3719 31.7492 11.9263 32.0952C10.9811 32.3568 10.0037 32.4807 9.02376 32.4631Z" fill="black"/>
<path d="M37.4333 32.0279C35.729 32.0279 34.2554 32.0279 32.7893 32.0279C32.1194 32.0279 31.8813 31.5324 31.5613 31.142C29.6635 28.8071 27.788 26.4497 25.8976 24.1073C25.6669 23.822 25.4883 23.4616 25.1534 23.3115C24.7366 23.4916 24.9227 23.8445 24.9227 24.1148C24.9227 26.4422 24.9227 28.7771 24.9227 31.112C24.9227 31.7952 24.7441 32.0955 24.0222 32.0279C22.9728 31.9303 21.6332 32.4484 20.9336 31.8252C20.234 31.2021 20.7029 29.8056 20.7029 28.7546C20.7029 21.8324 20.7029 14.9103 20.7029 7.98821C20.7029 7.06477 20.8964 6.64433 21.8862 6.76446C22.5664 6.83954 23.2527 6.83954 23.9329 6.76446C24.7366 6.68938 24.9748 6.97467 24.9673 7.78551C24.9673 11.682 24.9673 15.586 24.9673 19.4825C24.9673 20.0606 24.9673 20.6312 24.9673 21.2093C24.9673 21.4571 24.8557 21.7949 25.1385 21.9601C25.4213 22.1252 25.6744 21.7499 25.8828 21.5547C27.3712 19.8729 28.9416 18.2513 30.2961 16.4644C31.5017 14.8728 32.8562 13.9869 34.9029 14.3548C35.5914 14.4123 36.2834 14.4123 36.9719 14.3548C36.4533 15.2603 35.8036 16.0827 35.0443 16.7948C33.5558 18.4615 32.0674 20.0982 30.5789 21.7123C30.4429 21.8075 30.3312 21.9339 30.2529 22.0809C30.1746 22.228 30.1319 22.3917 30.1283 22.5586C30.1246 22.7256 30.1602 22.891 30.232 23.0414C30.3039 23.1918 30.41 23.3229 30.5417 23.4241C32.7148 25.9692 34.8136 28.5819 36.9421 31.1795C37.0091 31.3898 37.143 31.615 37.4333 32.0279Z" fill="black"/>
<path d="M114.866 24.4614C112.968 24.4614 111.063 24.4989 109.165 24.4614C108.19 24.4614 108.071 24.7767 108.421 25.61C108.7 26.4103 109.187 27.1202 109.831 27.6656C110.475 28.211 111.253 28.572 112.083 28.7107C113.943 29.0711 115.692 28.7107 116.868 27.0665C117.441 26.2632 117.917 26.1581 118.691 26.6686C119.122 26.906 119.567 27.1166 120.024 27.2993C121.103 27.8323 121.125 27.9299 120.373 28.9435C119.148 30.4944 117.472 31.6185 115.58 32.1572C113.688 32.696 111.676 32.6223 109.828 31.9465C107.955 31.2699 106.361 29.9788 105.302 28.28C104.242 26.5812 103.779 24.573 103.985 22.5769C104.028 20.9809 104.493 19.4254 105.332 18.0715C106.17 16.7175 107.353 15.6144 108.756 14.8763C110.16 14.1382 111.733 13.7919 113.314 13.8734C114.894 13.9548 116.425 14.461 117.746 15.3395C120.656 17.269 121.639 20.272 121.639 23.658C121.639 24.3262 121.266 24.4689 120.678 24.4689C118.743 24.4463 116.801 24.4614 114.866 24.4614ZM112.842 21.3306C114.092 21.3306 115.35 21.3306 116.563 21.3306C117.307 21.3306 117.411 21.1505 117.143 20.4597C116.845 19.5841 116.283 18.8242 115.535 18.2859C114.788 17.7476 113.894 17.4578 112.976 17.4567C112.006 17.431 111.051 17.7001 110.235 18.229C109.419 18.7578 108.779 19.5219 108.399 20.4222C108.064 21.218 108.339 21.3306 109.039 21.3156C110.334 21.3081 111.584 21.3306 112.842 21.3306Z" fill="black"/>
<path d="M47.22 26.8091C47.9642 24.9998 48.5671 23.4307 49.1773 21.8465C50.0406 19.6468 50.9114 17.4545 51.7226 15.2398C51.7753 14.9607 51.9319 14.7126 52.1603 14.5465C52.3887 14.3803 52.6715 14.3087 52.9506 14.3463C53.7858 14.3989 54.6235 14.3989 55.4587 14.3463C56.3369 14.2938 56.4188 14.6091 56.1062 15.3524C54.4986 19.2188 52.9283 23.1003 51.3207 26.9668C50.13 29.8498 48.9243 32.7327 47.6814 35.5932C47.1703 36.7507 46.4072 37.7772 45.4487 38.5963C43.8039 40.0377 41.9061 40.1654 39.8893 39.6924C39.7739 39.685 39.6615 39.6528 39.5594 39.598C39.4574 39.5432 39.3682 39.4671 39.2977 39.3746C39.2273 39.2822 39.1772 39.1757 39.1508 39.0622C39.1245 38.9486 39.1225 38.8307 39.145 38.7164C39.1971 37.9656 39.145 37.2148 39.145 36.419C39.145 35.916 39.2492 35.7884 39.8148 35.9385C41.7871 36.4866 42.9704 35.886 43.9156 34.0616C44.324 33.4174 44.5677 32.681 44.6249 31.9185C44.682 31.1559 44.5508 30.391 44.243 29.6921C42.1592 24.9547 40.3581 20.0897 38.3933 15.2998C38.0361 14.4439 38.2594 14.3088 39.0483 14.3538C40.1795 14.4064 41.5191 14.046 42.3899 14.5415C43.2606 15.037 43.3127 16.5161 43.7221 17.5972C44.8682 20.5777 45.992 23.5658 47.22 26.8091Z" fill="black"/>
<path d="M79.4592 26.5261C80.7318 23.2528 81.997 20.032 83.2399 16.8112C84.1851 14.3636 84.1776 14.3636 86.7973 14.3636C88.591 14.3636 88.5686 14.3636 87.869 16.0529C85.3535 22.1341 82.8454 28.2179 80.3448 34.3041C79.9582 35.2582 79.4874 36.1753 78.9382 37.0444C78.3329 38.0938 77.4236 38.9311 76.3327 39.4438C75.2417 39.9565 74.0213 40.12 72.8355 39.9124C71.5554 39.7622 71.347 39.567 71.347 38.2907V38.1706C71.347 37.4874 71.1312 36.6691 71.4289 36.1435C71.7266 35.618 72.5452 36.2636 73.1629 36.2036C73.6364 36.1766 74.0979 36.0432 74.5138 35.8133C74.9297 35.5834 75.2895 35.2628 75.5668 34.8747C76.1408 33.9648 76.6174 32.9958 76.9883 31.9842C77.1372 31.6539 76.9362 31.3386 76.8022 31.0082C74.7184 25.8204 72.6717 20.6101 70.5581 15.4373C70.1637 14.4763 70.4241 14.3486 71.3023 14.3486C74.6663 14.3486 74.6663 14.3486 75.8571 17.5169C76.8494 20.2297 77.864 22.9375 78.901 25.6402C78.9753 25.9937 79.1735 26.3082 79.4592 26.5261Z" fill="black"/>
<path d="M95.0492 32.4492C93.8008 32.4214 92.5842 32.0464 91.5336 31.3655C90.483 30.6846 89.6392 29.7242 89.0953 28.5902C88.8274 28.0572 88.8349 27.7944 89.4228 27.5466C90.1208 27.2523 90.7888 26.8902 91.4174 26.4655C92.0351 26.0376 92.2732 26.2103 92.6156 26.8184C92.9281 27.4836 93.4458 28.0288 94.091 28.3726C94.7363 28.7163 95.4746 28.8401 96.1954 28.7253C96.6153 28.7252 97.0214 28.5739 97.3407 28.2986C97.6599 28.0234 97.8713 27.6423 97.9369 27.2238C97.9799 26.8366 97.8832 26.4466 97.6645 26.1254C97.4458 25.8042 97.1198 25.5731 96.7461 25.4745C95.7265 25.0616 94.6697 24.7613 93.6426 24.3859C90.2712 23.1546 89.0135 21.1951 89.594 18.0869C90.0405 15.6619 92.6751 13.8 95.6521 13.9051C96.7971 13.9 97.9252 14.1838 98.9339 14.7306C99.9425 15.2773 100.8 16.0698 101.427 17.0358C101.837 17.644 102.03 18.1169 101.13 18.4173C100.886 18.5221 100.654 18.653 100.438 18.8077C99.8719 19.123 99.3212 19.6485 98.7407 19.6861C98.1601 19.7236 97.9964 18.8152 97.5648 18.4097C97.2236 18.045 96.7954 17.7748 96.321 17.6249C95.8467 17.4751 95.3421 17.4506 94.8557 17.5539C94.5334 17.5986 94.2327 17.7433 93.9954 17.9679C93.7581 18.1925 93.5958 18.486 93.531 18.8077C93.4866 19.1101 93.5393 19.4189 93.6812 19.689C93.8231 19.9591 94.0469 20.1764 94.3199 20.3092C95.4296 20.9055 96.61 21.3571 97.8327 21.6531C101.018 22.6891 102.64 25.0466 102.038 27.7794C101.375 30.7149 98.949 32.4792 95.0492 32.4492Z" fill="black"/>
<path d="M62.96 16.7035C63.4311 15.9692 64.0554 15.3475 64.7895 14.882C65.5235 14.4164 66.3494 14.1182 67.2096 14.0082C68.6088 13.843 68.7948 14.0082 68.7948 15.3896C68.7948 16.2305 69.0255 17.1614 68.7353 17.8897C68.3632 18.8432 67.2468 18.16 66.5026 18.3702C64.2699 18.9933 62.893 20.9378 62.8558 23.7082C62.8558 26.0731 62.8037 28.4455 62.8558 30.818C62.8558 31.7564 62.6251 32.0642 61.6576 32.0492C58.6211 32.0042 58.6211 32.0492 58.6211 29.0461C58.6211 24.5415 58.6211 20.0369 58.6211 15.5323C58.6211 14.6013 58.9039 14.2635 59.7895 14.3986C59.9407 14.4099 60.0924 14.4099 60.2435 14.3986C62.5135 14.3611 62.5135 14.3611 62.96 16.7035Z" fill="black"/>
</svg>
