<svg width="204" height="80" viewBox="0 0 204 80" fill="none" xmlns="http://www.w3.org/2000/svg">
<path d="M29.1636 11C12.972 11 -0.402543 20.1544 0.00926248 36.3984C0.450222 53.8337 5.08941 67.9362 23.6061 69.3797C43.3909 70.9219 62.6911 58.5772 59.3456 39.3219C55.9637 19.8803 46.6416 11 29.1636 11Z" fill="#0A9EF1"/>
<path d="M28.4926 22C43.0563 22 44.9965 27.4226 46.354 37.5602C47.7717 48.1501 42.6812 57.6228 31.3393 58.5049C19.2181 59.4497 10.0239 51.3248 10.0016 39.3513C9.98598 29.6794 17.7289 22.3291 28.4926 22Z" fill="#FFC700"/>
<path d="M95.5935 12.5879C117.652 12.5879 120.591 20.8012 122.647 36.1561C124.795 52.1961 117.084 66.5439 99.9052 67.88C81.5458 69.3111 67.6199 57.0047 67.5861 38.869C67.5624 24.2194 79.2902 13.0864 95.5935 12.5879Z" fill="#FFC700"/>
<path d="M95.1359 52C101.64 52 105.958 48.5059 106.848 41.9736C107.778 35.1498 104.44 28.6131 97.0025 28.0447C89.0544 27.4359 83.3097 33.1099 83.011 40.8194C82.7241 48.2578 88.0779 51.7894 95.1359 52Z" fill="#FF2A2A"/>
<path d="M188.76 54.3304C196.619 40.717 194.397 27.3864 181.566 17.4942C168.161 7.16099 150.212 6.11227 140.015 20.9787C129.115 36.8649 134.253 55.8623 150.306 65.9636C165.795 75.7071 179.783 68.843 188.76 54.3304Z" fill="#FF2A2A"/>
<path d="M163.659 25C175.204 25 176.742 29.299 177.818 37.336C178.942 45.7316 174.906 53.2415 165.916 53.9409C156.308 54.6899 149.019 48.2486 149.002 38.756C148.989 31.0881 155.127 25.2609 163.659 25Z" fill="#0A9EF1"/>
</svg>
