<svg width="111" height="40" viewBox="0 0 111 40" fill="none" xmlns="http://www.w3.org/2000/svg">
<path d="M110.665 19.9452V20.0548C110.57 20.1644 110.467 20.2685 110.378 20.3836C105.985 26.0603 101.592 31.7392 97.2013 37.4203C96.3609 38.5096 95.3258 39.3041 94.0047 39.714C93.6582 39.8236 93.3051 39.9058 92.9553 40H0.665283V0H92.9553C93.0545 0.0437289 93.1567 0.0803516 93.2611 0.109589C94.8638 0.401096 96.1453 1.21205 97.1353 2.49534C99.5245 5.59014 101.916 8.68274 104.311 11.7732C106.42 14.4997 108.539 17.2237 110.665 19.9452ZM3.64848 37.0488H4.24248C33.4291 37.0488 62.6125 37.0506 91.7926 37.0542C93.1005 37.0542 94.1026 36.5764 94.9067 35.5321C98.0098 31.4838 101.143 27.4586 104.263 23.4247C105.143 22.2871 106.023 21.1481 106.903 20.0077C106.769 19.8258 106.665 19.6789 106.553 19.5321C102.67 14.5151 98.79 9.49662 94.9122 4.47671C94.1103 3.43452 93.1137 2.94247 91.8036 2.94247C62.6169 2.9505 33.4332 2.95233 4.25238 2.94795H3.64848V37.0488Z" fill="black"/>
<path d="M55.7856 28.5673H52.7551V11.5547C52.8735 11.5278 52.9937 11.5099 53.1148 11.501C56.4676 11.501 59.8248 11.4725 63.1732 11.5087C65.6482 11.5361 67.6326 13.1525 68.1815 15.4933C68.7975 18.1235 67.7646 20.6813 65.624 21.809C65.3523 21.9525 65.0641 22.0676 64.722 22.2243L68.3289 28.5925C67.1827 28.5925 66.1135 28.6068 65.0465 28.575C64.9112 28.575 64.7473 28.3449 64.6582 28.187C63.6539 26.4084 62.6661 24.6199 61.6563 22.8435C61.554 22.6616 61.3395 22.4205 61.1734 22.4172C59.4002 22.3865 57.6248 22.3975 55.7834 22.3975L55.7856 28.5673ZM55.7856 19.2862C55.8405 19.3136 55.899 19.3332 55.9594 19.3443C58.3409 19.3443 60.7224 19.3706 63.1039 19.3344C64.0565 19.3202 64.7814 18.8555 65.129 17.9218C65.8297 16.038 64.7715 14.5136 62.7519 14.507C60.608 14.4994 58.4619 14.507 56.3202 14.507C56.1442 14.507 55.9682 14.5235 55.7856 14.5333V19.2862Z" fill="black"/>
<path d="M71.6418 19.8095C71.6418 14.935 75.8009 10.969 80.8929 10.9876C86.0134 11.0062 90.0669 15.0282 90.0647 20.0835C90.0647 24.9964 85.9078 29.0139 80.8313 29.0106C75.6887 29.0095 71.6407 24.9569 71.6418 19.8095ZM74.6602 20.0287C74.6316 23.2627 77.3541 25.9071 80.7411 25.9367C84.2611 25.9662 87.032 23.3284 87.0397 19.9421C87.0485 16.7005 84.3744 14.1032 80.9897 14.0704C77.3333 14.0276 74.6932 16.5142 74.6602 20.0254V20.0287Z" fill="black"/>
<path d="M32.6972 11.5234H35.654V12.1744C35.654 15.4785 35.6452 18.7826 35.654 22.0867C35.6628 24.2577 36.4405 25.3306 38.4689 25.6856C39.5858 25.8802 40.7251 25.913 41.8514 25.7832C43.9744 25.5333 44.8687 24.4133 44.8731 22.2697C44.8797 18.928 44.8797 15.5874 44.8731 12.2478V11.5465H47.8585V12.1645C47.8585 15.5618 47.798 18.9591 47.8761 22.3563C47.9542 25.7536 45.9445 27.9859 42.8579 28.6369C40.6634 29.0993 38.481 29.1245 36.3833 28.2412C34.0425 27.2549 32.7027 25.5015 32.6752 22.9218C32.6345 19.2166 32.6642 15.5103 32.6653 11.8051C32.6763 11.7262 32.684 11.6582 32.6972 11.5234Z" fill="black"/>
<path d="M22.5465 14.5305V28.5579H19.5523V14.5546H13.6926V11.5376H28.3875V14.5305H22.5465Z" fill="black"/>
</svg>
