<svg width="150" height="40" viewBox="0 0 150 40" fill="none" xmlns="http://www.w3.org/2000/svg">
<path d="M122.49 21.1546C122.49 13.0342 126.925 7.72282 133.785 6.81076C140.302 5.94086 146.002 9.06025 148.092 14.8583C149.948 20.028 149.364 24.9523 145.697 29.2099C143.788 31.4325 141.258 32.6129 138.416 33.088C134.997 33.659 131.695 33.2758 128.672 31.49C124.372 28.9531 122.587 24.9638 122.49 21.1546ZM127.979 19.9437C127.956 24.6266 131.228 28.0985 135.701 28.1445C140.174 28.1905 143.532 24.6956 143.543 20.0586C143.555 15.4217 140.268 11.9229 135.776 11.9152C131.285 11.9076 127.998 15.3067 127.979 19.9437Z" fill="#2A2A2A"/>
<path d="M88.3952 32.6972C88.0251 32.7869 87.6386 32.7783 87.2727 32.6722C86.9068 32.5662 86.5738 32.3663 86.3056 32.0917C80.5552 27.1482 74.7884 22.2264 69.0054 17.3263C68.8999 17.2382 68.7832 17.1654 68.5423 16.9853V30.7811C68.5423 32.1454 67.9512 32.7509 66.6146 32.7547C65.4851 32.7547 64.3556 32.7547 63.2261 32.7547C63.1613 32.7503 63.097 32.74 63.0341 32.7241C63.0341 32.5593 62.9851 32.3753 62.9851 32.1952C62.9851 24.458 62.9851 16.7247 62.9851 8.9875C62.9851 7.73055 63.8134 7.14806 64.6756 7.35499C65.0288 7.4613 65.355 7.64435 65.6319 7.8915C71.1539 12.4901 76.676 17.1066 82.198 21.741L82.951 22.3388V9.24426C82.951 7.8915 83.5157 7.30901 84.8335 7.30518C86.0082 7.30518 87.1829 7.30518 88.4065 7.30518L88.3952 32.6972Z" fill="#2A2A2A"/>
<path d="M57.0154 32.755C55.2307 32.755 53.5628 32.755 51.8912 32.755C51.5738 32.7505 51.2642 32.655 50.9978 32.4794C50.7314 32.3039 50.519 32.0553 50.3852 31.7625C49.892 30.8619 49.3912 29.9728 48.9356 29.0531C48.8582 28.8472 48.7163 28.673 48.5319 28.5573C48.3475 28.4416 48.1308 28.391 47.9153 28.4131C44.0562 28.4438 40.2008 28.4361 36.3454 28.4131C36.1521 28.3865 35.9556 28.4254 35.7862 28.5237C35.6168 28.6221 35.4839 28.7744 35.4079 28.9573C34.9561 29.8732 34.4366 30.7584 33.9622 31.6628C33.8115 32.003 33.5642 32.2895 33.2522 32.4855C32.9402 32.6815 32.5778 32.778 32.2114 32.7627C30.6038 32.7627 28.9923 32.7627 27.2717 32.7627C27.4788 32.3794 27.6256 32.0729 27.78 31.7893C32.047 24.0048 36.314 16.2217 40.5811 8.43978C40.9049 7.84962 41.2814 7.3706 42.0042 7.30928C42.8551 7.24031 43.3371 7.72316 43.7173 8.42445C46.526 13.5596 49.3385 18.6922 52.1547 23.8222L56.605 31.9579C56.7292 32.1878 56.8459 32.4178 57.0154 32.755ZM46.2022 24.1096C44.8393 21.6263 43.5215 19.2274 42.1435 16.7096L38.0886 24.1096H46.2022Z" fill="#2A2A2A"/>
<path d="M118.121 9.9386L115.109 14.0467C110.38 10.4943 105.512 11.6976 103.113 14.6369C100.5 17.8367 100.7 22.9565 103.543 25.8652C106.509 28.9002 111.517 28.9309 115.097 25.9226L118.106 30.0422C114.582 33.9089 105.21 34.9858 99.8114 29.8315C94.6383 24.8918 94.514 15.6524 99.529 10.4636C104.691 5.13304 114.393 5.89948 118.121 9.9386Z" fill="#2A2A2A"/>
<path d="M1.66553 7.30872C3.4878 7.30872 5.18205 7.30872 6.87255 7.30872C7.64814 7.32404 8.06606 7.85289 8.44256 8.49669C10.5459 12.3851 12.6619 16.2709 14.7904 20.1542C16.2964 22.9134 17.7798 25.684 19.3084 28.4356C19.4263 28.5945 19.4901 28.7882 19.4901 28.9874C19.4901 29.1865 19.4263 29.3803 19.3084 29.5392C18.8867 30.1984 18.5253 30.8996 18.1563 31.5933C17.7873 32.2869 17.3619 32.7736 16.5298 32.7429C15.6977 32.7123 15.3288 32.2179 14.9786 31.5933C10.8723 24.0975 6.76085 16.603 2.64443 9.10984C2.3357 8.55034 2.04203 7.99084 1.66553 7.30872Z" fill="#2A2A2A"/>
<path d="M20.8349 26.6729C19.8108 24.8334 18.8356 23.1013 17.8831 21.3538C17.8596 21.2686 17.8535 21.1795 17.8651 21.0918C17.8768 21.0042 17.906 20.9199 17.9508 20.8441C20.2437 16.6287 22.5291 12.4133 24.871 8.19791C25.0021 7.97778 25.1776 7.78847 25.386 7.64249C25.5943 7.4965 25.8307 7.39715 26.0795 7.351C27.8265 7.25902 29.581 7.31267 31.4371 7.31267L20.8349 26.6729Z" fill="#2A2A2A"/>
</svg>
